<svg width="68" height="55" viewBox="0 0 68 55" fill="none" xmlns="http://www.w3.org/2000/svg">
<path d="M67.3659 0H0V44.8689H67.3659V0Z" fill="#003499"/>
<path d="M33.6045 5.86179L34.168 7.61386H36.0013L34.5176 8.7026L35.0882 10.4691L33.6045 9.38035L32.1208 10.4691L32.6843 8.7026L31.2078 7.61386H33.0481L33.6045 5.86179Z" fill="#FFCA00"/>
<path d="M33.6045 34.4073L34.168 36.1666H36.0013L34.5176 37.2626L35.0882 39.0146L33.6045 37.9259L32.1208 39.0146L32.6843 37.2626L31.2078 36.1666H33.0481L33.6045 34.4073Z" fill="#FFCA00"/>
<path d="M26.5637 7.61369L27.1344 9.37298H28.9605L27.4768 10.4689L28.0474 12.221L26.5637 11.1395L25.08 12.221L25.6436 10.4689L24.167 9.37298H25.9931L26.5637 7.61369Z" fill="#FFCA00"/>
<path d="M21.3499 12.9713L21.9063 14.7306H23.7466L22.2629 15.8265L22.8264 17.5786L21.3499 16.4899L19.8662 17.5786L20.4297 15.8265L18.9531 14.7306H20.7792L21.3499 12.9713Z" fill="#FFCA00"/>
<path d="M19.438 20.2609L20.0087 22.013H21.8348L20.3582 23.109L20.9217 24.8755L19.438 23.7795L17.9614 24.8755L18.525 23.109L17.0413 22.013H18.8816L19.438 20.2609Z" fill="#FFCA00"/>
<path d="M21.3499 27.1248L21.9063 28.8769H23.7466L22.2629 29.9728L22.8264 31.7393L21.3499 30.6434L19.8662 31.7393L20.4297 29.9728L18.9531 28.8769H20.7792L21.3499 27.1248Z" fill="#FFCA00"/>
<path d="M26.5637 32.5677L27.1344 34.3198H28.9605L27.4768 35.4158L28.0474 37.1678L26.5637 36.0863L25.08 37.1678L25.6436 35.4158L24.167 34.3198H25.9931L26.5637 32.5677Z" fill="#FFCA00"/>
<path d="M40.8018 7.61369L40.2312 9.37298H38.3979L39.8817 10.4689L39.3181 12.221L40.8018 11.1395L42.2784 12.221L41.7149 10.4689L43.1986 9.37298H41.3654L40.8018 7.61369Z" fill="#FFCA00"/>
<path d="M46.0162 12.9713L45.4527 14.7306H43.6123L45.1031 15.8265L44.5325 17.5786L46.0162 16.4899L47.4856 17.5786L46.9292 15.8265L48.4129 14.7306H46.5797L46.0162 12.9713Z" fill="#FFCA00"/>
<path d="M47.9209 20.2609L47.3503 22.013H45.5242L47.0007 23.109L46.4444 24.8755L47.9209 23.7795L49.3975 24.8755L48.834 23.109L50.3177 22.013H48.4916L47.9209 20.2609Z" fill="#FFCA00"/>
<path d="M46.0162 27.1248L45.4527 28.8769H43.6123L45.1031 29.9728L44.5325 31.7393L46.0162 30.6434L47.4856 31.7393L46.9292 29.9728L48.4129 28.8769H46.5797L46.0162 27.1248Z" fill="#FFCA00"/>
<path d="M40.8018 32.5677L40.2312 34.3198H38.3979L39.8817 35.4158L39.3181 37.1678L40.8018 36.0863L42.2784 37.1678L41.7149 35.4158L43.1986 34.3198H41.3654L40.8018 32.5677Z" fill="#FFCA00"/>
<path d="M3.07446 54.9054V50.0025H6.66959V50.8316H4.05171V51.9204H6.49126V52.7495H4.05171V54.0834H6.76232V54.9126H3.07446V54.9054Z" fill="#003499"/>
<path d="M7.59009 50.0026H8.56734V52.6559C8.56734 53.0741 8.5816 53.3481 8.603 53.4779C8.6458 53.6798 8.74566 53.8384 8.9026 53.961C9.05953 54.0835 9.27352 54.1412 9.55172 54.1412C9.82991 54.1412 10.0368 54.0835 10.1794 53.9682C10.3221 53.8528 10.4077 53.7158 10.4362 53.5428C10.4648 53.3697 10.479 53.0957 10.479 52.7064V49.9954H11.4563V52.5694C11.4563 53.1606 11.4277 53.5716 11.3778 53.8168C11.3279 54.0619 11.228 54.2638 11.0854 54.4296C10.9427 54.5955 10.7501 54.7325 10.5147 54.8262C10.2793 54.9199 9.96544 54.9776 9.58025 54.9776C9.11659 54.9776 8.76706 54.9199 8.52454 54.8118C8.28914 54.7036 8.09654 54.5594 7.96101 54.3936C7.81835 54.2205 7.73275 54.0403 7.68282 53.8528C7.61862 53.5716 7.59009 53.1606 7.59009 52.6054V50.0026Z" fill="#003499"/>
<path d="M12.4905 54.9054V50.0025H14.552C15.0727 50.0025 15.4508 50.0457 15.679 50.1322C15.9144 50.2188 16.0999 50.3774 16.2425 50.6009C16.3852 50.8244 16.4565 51.084 16.4565 51.3724C16.4565 51.7401 16.3495 52.0429 16.1355 52.2809C15.9215 52.5188 15.6006 52.6702 15.1726 52.7351C15.3866 52.8577 15.5578 52.9947 15.7004 53.1461C15.8431 53.2975 16.0214 53.5643 16.2568 53.9392L16.8489 54.8982H15.679L14.9728 53.8311C14.7232 53.4489 14.552 53.211 14.4592 53.1101C14.3665 53.0091 14.2666 52.9442 14.1668 52.9082C14.0598 52.8721 13.8957 52.8505 13.6746 52.8505H13.4749V54.8982H12.4905V54.9054ZM13.4677 52.079H14.1953C14.6661 52.079 14.9586 52.0574 15.0727 52.0213C15.1868 51.9853 15.2796 51.9132 15.3438 51.8122C15.408 51.7113 15.4436 51.5887 15.4436 51.4445C15.4436 51.2787 15.4008 51.1489 15.3152 51.0479C15.2296 50.947 15.1084 50.8821 14.9443 50.8533C14.8658 50.8388 14.6233 50.8388 14.231 50.8388H13.4677V52.079Z" fill="#003499"/>
<path d="M17.1838 52.491C17.1838 51.9935 17.2552 51.5753 17.405 51.2364C17.512 50.9841 17.6689 50.7605 17.8544 50.5659C18.0398 50.3712 18.2538 50.2198 18.4821 50.1261C18.7817 49.9963 19.1312 49.9314 19.5307 49.9314C20.244 49.9314 20.8146 50.1549 21.2498 50.6019C21.6778 51.049 21.8917 51.6762 21.8917 52.4694C21.8917 53.2625 21.6778 53.8826 21.2498 54.3296C20.8218 54.7766 20.2511 55.0001 19.5449 55.0001C18.8245 55.0001 18.2467 54.7766 17.8258 54.3296C17.3978 53.8826 17.1838 53.2697 17.1838 52.491ZM18.1968 52.4549C18.1968 53.0101 18.3251 53.4283 18.5748 53.7167C18.8245 54.0051 19.1526 54.1493 19.5449 54.1493C19.9373 54.1493 20.2582 54.0051 20.5079 53.7239C20.7576 53.4427 20.886 53.0101 20.886 52.4477C20.886 51.8853 20.7647 51.4671 20.5222 51.1932C20.2796 50.9192 19.9515 50.775 19.5521 50.775C19.1455 50.775 18.8245 50.912 18.5748 51.1932C18.3251 51.4744 18.1968 51.8925 18.1968 52.4549Z" fill="#003499"/>
<path d="M22.6553 54.9054V50.0025H24.2246C24.8166 50.0025 25.209 50.0241 25.3873 50.0746C25.6655 50.1467 25.9009 50.3053 26.0863 50.5577C26.2718 50.8028 26.3645 51.12 26.3645 51.5094C26.3645 51.8122 26.3075 52.0646 26.2005 52.2665C26.0935 52.4683 25.9579 52.6342 25.7867 52.7495C25.6227 52.8649 25.4515 52.9442 25.2803 52.9803C25.0449 53.0235 24.7096 53.0524 24.2674 53.0524H23.6254V54.9054H22.6553ZM23.6325 50.8316V52.2232H24.1675C24.5527 52.2232 24.8095 52.1944 24.945 52.1439C25.0734 52.0934 25.1804 52.0141 25.2518 51.906C25.3231 51.7978 25.3659 51.668 25.3659 51.5238C25.3659 51.3436 25.316 51.1994 25.209 51.084C25.102 50.9686 24.9736 50.8965 24.8166 50.8677C24.7025 50.8461 24.4671 50.8316 24.1104 50.8316H23.6325Z" fill="#003499"/>
<path d="M27.1775 54.9054V50.0025H30.7726V50.8316H28.1547V51.9204H30.5943V52.7495H28.1547V54.0834H30.8654V54.9126H27.1775V54.9054Z" fill="#003499"/>
<path d="M36.0726 54.9054H35.0098L34.5889 53.795H32.6487L32.2492 54.9054H31.2078L33.0981 50.0025H34.1324L36.0726 54.9054ZM34.2679 52.9658L33.5974 51.1489L32.9411 52.9658H34.2679Z" fill="#003499"/>
<path d="M36.6003 54.9054V50.0025H37.5562L39.5392 53.2759V50.0025H40.4523V54.9054H39.4679L37.5134 51.7041V54.9054H36.6003Z" fill="#003499"/>
<path d="M43.363 50.0026H44.3403V52.6559C44.3403 53.0741 44.3545 53.3481 44.3759 53.4779C44.4187 53.6798 44.5186 53.8384 44.6755 53.961C44.8325 54.0835 45.0465 54.1412 45.3247 54.1412C45.6029 54.1412 45.8097 54.0835 45.9524 53.9682C46.095 53.8528 46.1806 53.7158 46.2092 53.5428C46.2377 53.3697 46.252 53.0957 46.252 52.7064V49.9954H47.2292V52.5694C47.2292 53.1606 47.2007 53.5716 47.1508 53.8168C47.1008 54.0619 47.001 54.2638 46.8583 54.4296C46.7156 54.5955 46.523 54.7325 46.2876 54.8262C46.0523 54.9199 45.7384 54.9776 45.3532 54.9776C44.8895 54.9776 44.54 54.9199 44.2975 54.8118C44.0621 54.7036 43.8695 54.5594 43.734 54.3936C43.5913 54.2205 43.5057 54.0403 43.4558 53.8528C43.3916 53.5716 43.363 53.1606 43.363 52.6054V50.0026Z" fill="#003499"/>
<path d="M48.2705 54.9054V50.0025H49.2264L51.2094 53.2759V50.0025H52.1224V54.9054H51.1381L49.1836 51.7041V54.9054H48.2705Z" fill="#003499"/>
<path d="M53.1277 54.9054V50.0025H54.1049V54.9054H53.1277Z" fill="#003499"/>
<path d="M54.8398 52.491C54.8398 51.9935 54.9112 51.5753 55.061 51.2364C55.168 50.9841 55.3249 50.7605 55.5104 50.5659C55.6958 50.3712 55.9098 50.2198 56.1381 50.1261C56.4377 49.9963 56.7872 49.9314 57.1867 49.9314C57.9 49.9314 58.4706 50.1549 58.9058 50.6019C59.3338 51.049 59.5478 51.6762 59.5478 52.4694C59.5478 53.2625 59.3338 53.8826 58.9058 54.3296C58.4778 54.7766 57.9071 55.0001 57.2009 55.0001C56.4805 55.0001 55.9027 54.7766 55.4818 54.3296C55.0538 53.8826 54.8398 53.2697 54.8398 52.491ZM55.8528 52.4549C55.8528 53.0101 55.9812 53.4283 56.2308 53.7167C56.4805 54.0051 56.8086 54.1493 57.2009 54.1493C57.5933 54.1493 57.9143 54.0051 58.1639 53.7239C58.4136 53.4427 58.542 53.0101 58.542 52.4477C58.542 51.8853 58.4207 51.4671 58.1782 51.1932C57.9357 50.9192 57.6075 50.775 57.2081 50.775C56.8015 50.775 56.4805 50.912 56.2308 51.1932C55.9812 51.4744 55.8528 51.8925 55.8528 52.4549Z" fill="#003499"/>
<path d="M60.3254 54.9054V50.0025H61.2813L63.2643 53.2759V50.0025H64.1774V54.9054H63.193L61.2385 51.7041V54.9054H60.3254Z" fill="#003499"/>
</svg>
