<svg width="68" height="55" viewBox="0 0 68 55" fill="none" xmlns="http://www.w3.org/2000/svg">
<path d="M67.3661 0H0.000183105V44.8689H67.3661V0Z" fill="white"/>
<path d="M33.6048 5.86182L34.1683 7.61389H36.0015L34.5178 8.70263L35.0885 10.4691L33.6048 9.38038L32.1211 10.4691L32.6846 8.70263L31.208 7.61389H33.0484L33.6048 5.86182Z" fill="#0051A9"/>
<path d="M33.6048 34.4073L34.1683 36.1666H36.0015L34.5178 37.2626L35.0885 39.0147L33.6048 37.9259L32.1211 39.0147L32.6846 37.2626L31.208 36.1666H33.0484L33.6048 34.4073Z" fill="#0051A9"/>
<path d="M26.5639 7.61365L27.1346 9.37293H28.9607L27.477 10.4689L28.0476 12.221L26.5639 11.1394L25.0802 12.221L25.6437 10.4689L24.1672 9.37293H25.9933L26.5639 7.61365Z" fill="#0051A9"/>
<path d="M21.35 12.9713L21.9064 14.7306H23.7468L22.263 15.8265L22.8266 17.5786L21.35 16.4899L19.8663 17.5786L20.4298 15.8265L18.9532 14.7306H20.7793L21.35 12.9713Z" fill="#0051A9"/>
<path d="M19.4381 20.261L20.0088 22.0131H21.8349L20.3583 23.109L20.9218 24.8755L19.4381 23.7796L17.9616 24.8755L18.5251 23.109L17.0414 22.0131H18.8817L19.4381 20.261Z" fill="#0051A9"/>
<path d="M21.35 27.1249L21.9064 28.877H23.7468L22.263 29.9729L22.8266 31.7394L21.35 30.6434L19.8663 31.7394L20.4298 29.9729L18.9532 28.877H20.7793L21.35 27.1249Z" fill="#0051A9"/>
<path d="M26.5639 32.5677L27.1346 34.3198H28.9607L27.477 35.4158L28.0476 37.1678L26.5639 36.0863L25.0802 37.1678L25.6437 35.4158L24.1672 34.3198H25.9933L26.5639 32.5677Z" fill="#0051A9"/>
<path d="M40.802 7.61365L40.2314 9.37293H38.3981L39.8818 10.4689L39.3183 12.221L40.802 11.1394L42.2786 12.221L41.7151 10.4689L43.1988 9.37293H41.3655L40.802 7.61365Z" fill="#0051A9"/>
<path d="M46.0163 12.9713L45.4528 14.7306H43.6124L45.1033 15.8265L44.5326 17.5786L46.0163 16.4899L47.4858 17.5786L46.9294 15.8265L48.4131 14.7306H46.5798L46.0163 12.9713Z" fill="#0051A9"/>
<path d="M47.921 20.261L47.3504 22.0131H45.5243L47.0009 23.109L46.4445 24.8755L47.921 23.7796L49.3976 24.8755L48.8341 23.109L50.3178 22.0131H48.4917L47.921 20.261Z" fill="#0051A9"/>
<path d="M46.0163 27.1249L45.4528 28.877H43.6124L45.1033 29.9729L44.5326 31.7394L46.0163 30.6434L47.4858 31.7394L46.9294 29.9729L48.4131 28.877H46.5798L46.0163 27.1249Z" fill="#0051A9"/>
<path d="M40.802 32.5677L40.2314 34.3198H38.3981L39.8818 35.4158L39.3183 37.1678L40.802 36.0863L42.2786 37.1678L41.7151 35.4158L43.1988 34.3198H41.3655L40.802 32.5677Z" fill="#0051A9"/>
<path d="M3.07471 54.9054V50.0024H6.66984V50.8316H4.05195V51.9204H6.49151V52.7495H4.05195V54.0834H6.76257V54.9126H3.07471V54.9054Z" fill="white"/>
<path d="M7.59033 50.0026H8.56758V52.6559C8.56758 53.0741 8.58185 53.3481 8.60325 53.4779C8.64604 53.6798 8.74591 53.8384 8.90284 53.961C9.05977 54.0835 9.27377 54.1412 9.55196 54.1412C9.83015 54.1412 10.037 54.0835 10.1797 53.9682C10.3223 53.8528 10.4079 53.7158 10.4365 53.5428C10.465 53.3697 10.4793 53.0957 10.4793 52.7064V49.9954H11.4565V52.5694C11.4565 53.1606 11.428 53.5716 11.3781 53.8168C11.3281 54.0619 11.2283 54.2638 11.0856 54.4296C10.9429 54.5955 10.7503 54.7325 10.5149 54.8262C10.2795 54.9199 9.96569 54.9776 9.58049 54.9776C9.11684 54.9776 8.76731 54.9199 8.52478 54.8118C8.28938 54.7036 8.09679 54.5594 7.96126 54.3936C7.81859 54.2205 7.733 54.0403 7.68306 53.8528C7.61886 53.5716 7.59033 53.1606 7.59033 52.6054V50.0026Z" fill="white"/>
<path d="M12.4907 54.9054V50.0024H14.5522C15.0729 50.0024 15.4509 50.0457 15.6792 50.1322C15.9146 50.2187 16.1001 50.3774 16.2427 50.6009C16.3854 50.8244 16.4567 51.084 16.4567 51.3724C16.4567 51.7401 16.3497 52.0429 16.1357 52.2809C15.9217 52.5188 15.6007 52.6702 15.1727 52.7351C15.3867 52.8577 15.5579 52.9947 15.7006 53.1461C15.8433 53.2975 16.0216 53.5643 16.257 53.9392L16.849 54.8982H15.6792L14.973 53.831C14.7234 53.4489 14.5522 53.211 14.4594 53.11C14.3667 53.0091 14.2668 52.9442 14.167 52.9081C14.06 52.8721 13.8959 52.8505 13.6748 52.8505H13.475V54.8982H12.4907V54.9054ZM13.4679 52.079H14.1955C14.6663 52.079 14.9587 52.0573 15.0729 52.0213C15.187 51.9852 15.2797 51.9131 15.3439 51.8122C15.4081 51.7113 15.4438 51.5887 15.4438 51.4445C15.4438 51.2786 15.401 51.1489 15.3154 51.0479C15.2298 50.947 15.1085 50.8821 14.9445 50.8532C14.866 50.8388 14.6235 50.8388 14.2312 50.8388H13.4679V52.079Z" fill="white"/>
<path d="M17.184 52.491C17.184 51.9935 17.2554 51.5753 17.4051 51.2364C17.5121 50.9841 17.6691 50.7606 17.8545 50.5659C18.04 50.3712 18.254 50.2198 18.4823 50.1261C18.7819 49.9963 19.1314 49.9314 19.5308 49.9314C20.2442 49.9314 20.8148 50.1549 21.2499 50.6019C21.6779 51.049 21.8919 51.6763 21.8919 52.4694C21.8919 53.2625 21.6779 53.8826 21.2499 54.3296C20.822 54.7766 20.2513 55.0002 19.5451 55.0002C18.8247 55.0002 18.2469 54.7766 17.826 54.3296C17.398 53.8826 17.184 53.2697 17.184 52.491ZM18.1969 52.455C18.1969 53.0101 18.3253 53.4283 18.575 53.7167C18.8247 54.0051 19.1528 54.1493 19.5451 54.1493C19.9374 54.1493 20.2584 54.0051 20.5081 53.724C20.7578 53.4428 20.8861 53.0101 20.8861 52.4477C20.8861 51.8854 20.7649 51.4672 20.5224 51.1932C20.2798 50.9192 19.9517 50.775 19.5522 50.775C19.1456 50.775 18.8247 50.912 18.575 51.1932C18.3253 51.4744 18.1969 51.8926 18.1969 52.455Z" fill="white"/>
<path d="M22.6555 54.9054V50.0024H24.2248C24.8168 50.0024 25.2091 50.0241 25.3875 50.0745C25.6657 50.1466 25.9011 50.3053 26.0865 50.5576C26.272 50.8028 26.3647 51.12 26.3647 51.5094C26.3647 51.8122 26.3077 52.0646 26.2007 52.2664C26.0937 52.4683 25.9581 52.6342 25.7869 52.7495C25.6229 52.8649 25.4517 52.9442 25.2805 52.9802C25.0451 53.0235 24.7098 53.0523 24.2676 53.0523H23.6256V54.9054H22.6555ZM23.6327 50.8316V52.2232H24.1677C24.5529 52.2232 24.8097 52.1943 24.9452 52.1439C25.0736 52.0934 25.1806 52.0141 25.2519 51.9059C25.3233 51.7978 25.3661 51.668 25.3661 51.5238C25.3661 51.3435 25.3161 51.1993 25.2091 51.084C25.1021 50.9686 24.9737 50.8965 24.8168 50.8677C24.7027 50.846 24.4673 50.8316 24.1106 50.8316H23.6327Z" fill="white"/>
<path d="M27.1778 54.9054V50.0024H30.7729V50.8316H28.155V51.9204H30.5946V52.7495H28.155V54.0834H30.8657V54.9126H27.1778V54.9054Z" fill="white"/>
<path d="M36.0729 54.9054H35.0101L34.5892 53.795H32.649L32.2495 54.9054H31.2081L33.0984 50.0024H34.1327L36.0729 54.9054ZM34.2682 52.9658L33.5977 51.1489L32.9414 52.9658H34.2682Z" fill="white"/>
<path d="M36.6005 54.9054V50.0024H37.5563L39.5393 53.2759V50.0024H40.4524V54.9054H39.468L37.5135 51.704V54.9054H36.6005Z" fill="white"/>
<path d="M43.3633 50.0026H44.3405V52.6559C44.3405 53.0741 44.3548 53.3481 44.3762 53.4779C44.419 53.6798 44.5189 53.8384 44.6758 53.961C44.8327 54.0835 45.0467 54.1412 45.3249 54.1412C45.6031 54.1412 45.81 54.0835 45.9526 53.9682C46.0953 53.8528 46.1809 53.7158 46.2094 53.5428C46.238 53.3697 46.2522 53.0957 46.2522 52.7064V49.9954H47.2295V52.5694C47.2295 53.1606 47.2009 53.5716 47.151 53.8168C47.1011 54.0619 47.0012 54.2638 46.8585 54.4296C46.7159 54.5955 46.5233 54.7325 46.2879 54.8262C46.0525 54.9199 45.7386 54.9776 45.3534 54.9776C44.8898 54.9776 44.5403 54.9199 44.2977 54.8118C44.0623 54.7036 43.8697 54.5594 43.7342 54.3936C43.5915 54.2205 43.5059 54.0403 43.456 53.8528C43.3918 53.5716 43.3633 53.1606 43.3633 52.6054V50.0026Z" fill="white"/>
<path d="M48.2707 54.9054V50.0024H49.2265L51.2096 53.2759V50.0024H52.1226V54.9054H51.1382L49.1837 51.704V54.9054H48.2707Z" fill="white"/>
<path d="M53.128 54.9054V50.0024H54.1052V54.9054H53.128Z" fill="white"/>
<path d="M54.84 52.491C54.84 51.9935 54.9113 51.5753 55.0611 51.2364C55.1681 50.9841 55.325 50.7606 55.5105 50.5659C55.696 50.3712 55.9099 50.2198 56.1382 50.1261C56.4378 49.9963 56.7873 49.9314 57.1868 49.9314C57.9001 49.9314 58.4708 50.1549 58.9059 50.6019C59.3339 51.049 59.5479 51.6763 59.5479 52.4694C59.5479 53.2625 59.3339 53.8826 58.9059 54.3296C58.4779 54.7766 57.9072 55.0002 57.2011 55.0002C56.4806 55.0002 55.9028 54.7766 55.482 54.3296C55.054 53.8826 54.84 53.2697 54.84 52.491ZM55.8529 52.455C55.8529 53.0101 55.9813 53.4283 56.2309 53.7167C56.4806 54.0051 56.8087 54.1493 57.2011 54.1493C57.5934 54.1493 57.9144 54.0051 58.164 53.724C58.4137 53.4428 58.5421 53.0101 58.5421 52.4477C58.5421 51.8854 58.4208 51.4672 58.1783 51.1932C57.9358 50.9192 57.6076 50.775 57.2082 50.775C56.8016 50.775 56.4806 50.912 56.2309 51.1932C55.9813 51.4744 55.8529 51.8926 55.8529 52.455Z" fill="white"/>
<path d="M60.3256 54.9054V50.0024H61.2815L63.2645 53.2759V50.0024H64.1775V54.9054H63.1932L61.2387 51.704V54.9054H60.3256Z" fill="white"/>
</svg>
