<svg width="135" height="75" viewBox="0 0 135 75" fill="none" xmlns="http://www.w3.org/2000/svg">
<path d="M36.0935 33.1567H43.036V42.5617C41.9778 42.8957 40.912 43.2373 39.8537 43.4043C38.8705 43.5713 37.8123 43.6548 36.7465 43.6548C34.0521 43.6548 32.0106 42.8122 30.6221 41.2181C29.2336 39.6241 28.498 37.2709 28.498 34.3333C28.498 31.3956 29.3161 29.1259 30.9448 27.4484C32.581 25.7708 34.8626 25.0117 37.7222 25.0117C39.516 25.0117 41.3173 25.4292 42.946 26.1048L41.7226 29.2094C40.4992 28.5415 39.1107 28.1999 37.7222 28.1999C36.2511 28.1164 34.8626 28.7844 33.8044 29.8774C32.7386 31.1375 32.2508 32.7316 32.3333 34.4092C32.2508 36.0032 32.6636 37.5973 33.4741 38.9409C34.2922 40.034 35.5982 40.6185 36.9041 40.535C37.7222 40.535 38.5403 40.4515 39.2758 40.2845V36.5042H35.9284L36.0935 33.1567Z" fill="white"/>
<path d="M50.6391 24.0098H46.9614V43.3208H50.6391V24.0098Z" fill="white"/>
<path d="M57.4089 36.3525C57.3263 37.4455 57.574 38.5386 58.0619 39.4571C58.9625 40.6337 60.6738 40.8842 61.8972 39.8746C62.0623 39.7076 62.2274 39.6241 62.3024 39.4571C62.7903 38.531 63.038 37.4455 62.9554 36.3525C63.038 35.2594 62.7903 34.1663 62.3024 33.2478C61.3192 32.0712 59.5254 31.9042 58.3846 32.9138C58.2195 32.9973 58.1369 33.1643 58.0544 33.2478C57.574 34.2498 57.3339 35.3429 57.4089 36.3525ZM66.7231 36.3525C66.8057 38.2805 66.2353 40.2162 65.0044 41.6433C63.781 42.9868 61.9797 43.6548 60.1859 43.5713C58.9625 43.5713 57.8142 43.3208 56.7559 42.7287C55.7727 42.1443 54.9621 41.3017 54.4668 40.2086C53.8964 39.032 53.6487 37.6884 53.6487 36.4284C53.5661 34.5003 54.1365 32.6481 55.3674 31.1376C56.6734 29.794 58.3921 29.126 60.1859 29.2095C61.4093 29.2095 62.5576 29.46 63.6159 30.0521C64.5991 30.6366 65.4097 31.4791 65.905 32.5722C66.4755 33.7488 66.8057 35.0924 66.7231 36.3525Z" fill="white"/>
<path d="M76.1125 32.2382C75.377 32.1547 74.6414 32.4887 74.1536 33.0808C73.6657 33.9234 73.4181 34.9254 73.5006 35.935V36.3524C73.4181 37.4455 73.6657 38.5386 74.1536 39.5406C74.6414 40.2086 75.377 40.5502 76.1951 40.5502C76.9306 40.5502 77.6661 40.1327 77.9889 39.4571C78.4767 38.531 78.7244 37.4455 78.6418 36.3524C78.7244 35.2594 78.4767 34.2574 77.9889 33.2478C77.5836 32.5722 76.848 32.2382 76.1125 32.2382ZM77.3359 29.2171C78.8069 29.1336 80.1955 29.8851 81.0961 31.1451C82.0793 32.7392 82.5672 34.5838 82.4846 36.4359C82.5672 38.2805 82.0793 40.2162 81.0961 41.7268C79.3774 43.9129 76.2776 44.2469 74.2361 42.4858C73.9885 42.3188 73.8309 42.0683 73.5832 41.9013H73.3355L72.6825 43.4119H69.9055V24.0933H73.5832V28.5415C73.5832 29.126 73.5006 30.0521 73.4181 31.3121H73.5832C74.3187 29.8851 75.7898 29.1336 77.3359 29.2171Z" fill="white"/>
<path d="M92.8571 36.937L91.4686 37.0205C90.6505 37.0205 89.8324 37.1875 89.0969 37.605C88.5265 37.939 88.1963 38.6145 88.2788 39.2825C88.2788 40.3756 88.8492 40.8766 90.0726 40.8766C90.8081 40.8766 91.5437 40.6261 92.1141 40.1251C92.6019 39.6241 92.9322 38.865 92.8496 38.1135V36.937H92.8571ZM93.9979 43.3209L93.2624 41.4763H93.1799C92.692 42.1443 92.039 42.7364 91.3035 43.1539C90.4854 43.4878 89.5848 43.6548 88.7742 43.5714C87.6334 43.6548 86.5676 43.2374 85.7495 42.4783C84.9314 41.5522 84.5261 40.4667 84.6087 39.2066C84.5261 37.9465 85.0965 36.6865 86.0797 35.935C87.4682 35.0924 89.0219 34.7584 90.568 34.7584L92.9397 34.6749V34.0828C93.1048 33.0732 92.3693 32.0712 91.3861 31.9877H90.8982C89.5923 32.0712 88.2863 32.4052 87.0629 32.9973L85.8396 30.4772C87.4757 29.6346 89.187 29.2171 90.9808 29.2171C92.4518 29.1336 93.9229 29.5511 95.1463 30.4772C96.1295 31.4033 96.6999 32.7468 96.6173 34.1739V43.4044L93.9979 43.3209Z" fill="white"/>
<path d="M104.048 24.0098H100.37V43.3208H104.048V24.0098Z" fill="white"/>
<path d="M36.0935 58.5101H43.036V67.9151C41.9778 68.2491 40.912 68.5907 39.8537 68.7577C38.8705 68.9247 37.8123 69.0082 36.7465 69.0082C34.0521 69.0082 32.0931 68.1656 30.6221 66.5715C29.2336 64.9775 28.498 62.6243 28.498 59.6031C28.498 56.6655 29.3161 54.3958 30.9448 52.7183C32.581 51.0407 34.8626 50.2816 37.7222 50.2816C39.516 50.2816 41.3173 50.6156 42.946 51.3747L41.7226 54.4793C40.4992 53.8038 39.1107 53.4698 37.7222 53.4698C36.2511 53.3863 34.8626 54.0543 33.8044 55.1473C32.7386 56.4074 32.2508 58.0015 32.3333 59.6791C32.2508 61.2731 32.6636 62.8672 33.4741 64.2108C34.2922 65.3039 35.5982 65.8049 36.9041 65.7214C37.7222 65.7214 38.5403 65.6379 39.2758 65.4709V61.6906H35.9284L36.0935 58.5101Z" fill="white"/>
<path d="M54.4744 62.2904L53.0859 62.3739C52.2678 62.3739 51.4497 62.5409 50.7141 62.9584C50.1437 63.2924 49.8961 63.9679 49.8961 64.6359C49.8961 65.729 50.4665 66.23 51.6898 66.23C52.4254 66.23 53.1609 65.9795 53.7313 65.4785C54.2192 64.9775 54.5494 64.2184 54.4668 63.4669V62.2904H54.4744ZM55.5326 68.6667L54.7971 66.8221H54.7145C54.2267 67.4901 53.5737 68.0822 52.8382 68.4997C52.0201 68.8337 51.1194 69.0007 50.3088 68.9172C49.168 69.0007 48.1023 68.5832 47.2842 67.7406C46.4661 66.898 46.0608 65.729 46.1433 64.4689C46.0608 63.2089 46.6312 61.9488 47.6144 61.1973C49.0029 60.3547 50.5565 60.0207 52.1852 60.0207L54.5569 59.9372V59.3527C54.722 58.3431 53.9865 57.3411 53.0033 57.2576H52.5154C51.2095 57.3411 49.9036 57.6751 48.6802 58.2672L47.4568 55.7471C49.093 54.9045 50.8042 54.487 52.598 54.487C54.0691 54.4035 55.5401 54.821 56.7635 55.7471C57.8218 56.6732 58.3171 58.0167 58.2346 59.4438V68.6818H55.5326V68.6667Z" fill="white"/>
<path d="M67.5413 65.9871C68.3594 65.9871 69.095 65.8201 69.8305 65.5696V68.4237C68.7722 68.8412 67.6239 69.0917 66.4831 69.0917C65.3422 69.1752 64.1114 68.7577 63.3008 67.9151C62.5652 66.9055 62.2425 65.729 62.3176 64.4765V57.7586H60.6063V56.081L62.6478 54.821L63.7061 51.8833H66.0778V54.821H69.8305V57.6751H66.0778V64.393C66.0778 64.8105 66.2429 65.2356 66.4831 65.5696C66.7232 65.8125 67.1285 65.9871 67.5413 65.9871Z" fill="white"/>
<path d="M78.154 57.25C77.501 57.25 76.7655 57.5005 76.3602 58.0015C75.8723 58.586 75.6247 59.3451 75.6247 60.1877H80.7659C80.7659 59.4286 80.5182 58.5936 80.0303 58.0015C79.5425 57.5081 78.8895 57.25 78.154 57.25ZM78.7244 68.9247C76.848 69.0082 75.0467 68.3402 73.6582 67.0802C72.3523 65.6531 71.6993 63.8085 71.7819 61.8728C71.6993 59.9448 72.2697 58.0091 73.4931 56.4985C74.7165 55.155 76.4352 54.487 78.1465 54.5705C79.7827 54.487 81.4113 55.0715 82.5597 56.248C83.7005 57.5081 84.2784 59.1857 84.1958 60.8633V62.7078H75.4595C75.4595 63.6339 75.7823 64.5524 76.3602 65.228C77.0132 65.896 77.9138 66.2376 78.807 66.1541C79.5425 66.1541 80.3606 66.0706 81.0961 65.9036C81.9142 65.7366 82.6497 65.4026 83.3853 65.061V67.9986C82.7323 68.3326 81.9968 68.5831 81.3438 68.7501C80.5257 68.9247 79.625 69.0082 78.7244 68.9247Z" fill="white"/>
<path d="M97.9982 68.6666L96.94 63.8009L95.5515 57.6751H95.4689L93.0221 68.6742H89.1043L85.269 54.8209H88.9467L90.5003 60.9467C90.6654 61.6982 90.9056 63.2164 91.2359 65.4785H91.3184C91.401 64.4689 91.5661 63.4669 91.7237 62.5408L91.8888 61.4477L93.525 54.8134H97.608L99.1616 61.4477C99.2441 61.8652 99.4093 62.5408 99.4843 63.4593C99.5669 64.1273 99.6494 64.8029 99.732 65.4709H99.8146C99.8971 64.7118 100.062 63.8768 100.22 62.9507C100.385 62.0246 100.55 61.3566 100.625 60.9392L102.261 54.8134H105.856L101.939 68.6666H97.9982Z" fill="white"/>
<path d="M115.561 62.2904L114.09 62.3739C113.272 62.3739 112.454 62.5409 111.718 62.9584C111.148 63.2924 110.9 63.9679 110.9 64.6359C110.9 65.729 111.471 66.23 112.694 66.23C113.429 66.23 114.165 65.9795 114.735 65.4785C115.223 64.9775 115.554 64.2184 115.471 63.4669L115.561 62.2904ZM116.619 68.6667L115.884 66.8221H115.801C115.313 67.4901 114.66 68.0822 113.925 68.4997C113.107 68.8337 112.206 69.0007 111.396 68.9172C110.255 69.0007 109.189 68.5832 108.371 67.7406C107.553 66.898 107.147 65.729 107.23 64.4689C107.147 63.2089 107.718 61.9488 108.701 61.1973C110.09 60.3547 111.643 60.0207 113.189 60.0207L115.561 59.9372V59.3527C115.726 58.3431 114.991 57.3411 114.007 57.2576H113.52C112.214 57.3411 110.908 57.6751 109.684 58.2672L108.461 55.7471C110.097 54.9045 111.808 54.487 113.602 54.487C115.073 54.4035 116.544 54.821 117.768 55.7471C118.751 56.6732 119.321 58.0167 119.239 59.4438V68.6818H116.619V68.6667Z" fill="white"/>
<path d="M121.115 54.8209H125.115L127.645 62.6319C127.892 63.3834 128.05 64.226 128.05 65.0685H128.133C128.215 64.226 128.38 63.4745 128.62 62.6319L131.067 54.8209H134.985L129.266 70.4353C128.861 71.6953 128.042 72.8719 127.059 73.7069C126.076 74.466 124.853 74.8 123.629 74.8C122.976 74.8 122.406 74.7165 121.753 74.5495V71.5283C122.241 71.6118 122.736 71.6953 123.224 71.6953C123.877 71.6953 124.447 71.4448 124.943 71.1108C125.513 70.6098 125.843 69.9343 126.084 69.2663L126.331 68.5907L121.115 54.8209Z" fill="white"/>
<path d="M31.5228 9.14694L34.3824 6.96838L37.2419 9.14694L36.1762 5.7083L39.0357 3.52214H35.4406L34.3824 0L33.2415 3.52214H29.729L32.5886 5.7083L31.5228 9.14694Z" fill="white"/>
<path d="M16.662 13.2612L19.5216 11.0826L22.3736 13.2612L21.3154 9.73906L24.1749 7.6364H20.5798L19.5216 4.11426L18.4558 7.6364H14.8607L17.7203 9.73906L16.662 13.2612Z" fill="white"/>
<path d="M8.65377 15.2803L7.51294 18.8024H3.91785L6.85997 20.9886L5.80171 24.4272L8.65377 22.3322L11.5133 24.4272L10.4551 20.9886L13.3146 18.8024H9.71954L8.65377 15.2803Z" fill="white"/>
<path d="M4.65336 37.5215L7.51293 39.7076L6.45466 36.269L9.38928 34.0828H5.80169L4.65336 30.5607L3.5951 34.0828H0L2.85957 36.269L1.7938 39.7076L4.65336 37.5215Z" fill="white"/>
<path d="M9.71954 49.3631L8.65377 45.8334L7.51294 49.3631H3.91785L6.85997 51.5417L5.80171 54.9879L8.65377 52.8852L11.5133 54.9879L10.4551 51.5417L13.3146 49.3631H9.71954Z" fill="white"/>
<path d="M20.6624 60.6127L19.5216 57.083L18.4558 60.6127H14.8607L17.7203 62.7078L16.662 66.2375L19.5216 64.0514L22.3736 66.2375L21.3154 62.7078L24.2575 60.6127H20.6624Z" fill="white"/>
<path d="M57.2514 24.4272L60.1109 22.2487L62.963 24.4272L61.9047 20.9051L64.8469 18.8024H61.2518L60.1109 15.2803L59.0452 18.8024H55.4501L58.3096 20.9051L57.2514 24.4272Z" fill="white"/>
<path d="M49.2431 4.11426L48.1848 7.6364H44.5897L47.4493 9.82256L46.391 13.2612L49.2431 11.0826L52.1026 13.2612L51.0444 9.82256L53.979 7.6364H50.3914L49.2431 4.11426Z" fill="white"/>
</svg>
