<svg width="355" height="142" viewBox="0 0 355 142" fill="none" xmlns="http://www.w3.org/2000/svg">
<g clip-path="url(#clip0_110_2229)">
<path d="M29.7604 104.898C33.2164 106.572 35.4304 109.758 35.4304 113.808C35.4304 116.832 34.3504 119.37 32.2444 121.422C30.1384 123.474 27.5464 124.5 24.4684 124.5H8.16035V86.7H23.2804C26.2504 86.7 28.7344 87.672 30.7864 89.67C32.8384 91.668 33.8644 94.098 33.8644 97.014C33.8644 100.362 32.5144 103.008 29.7604 104.898ZM23.2804 91.398H13.1824V102.954H23.2804C26.4664 102.954 28.8964 100.416 28.8964 97.176C28.8964 95.61 28.3564 94.26 27.2224 93.126C26.1424 91.992 24.8464 91.398 23.2804 91.398ZM13.1824 119.802H24.4684C27.8704 119.802 30.4624 117.102 30.4624 113.646C30.4624 111.972 29.8684 110.514 28.6804 109.326C27.5464 108.138 26.1424 107.544 24.4684 107.544H13.1824V119.802ZM71.623 124.5H66.277L63.199 116.022H46.189L43.111 124.5H37.765L51.859 86.7H57.529L71.623 124.5ZM54.667 92.694L47.917 111.324H61.471L54.667 92.694ZM57.637 83.19L54.613 79.086L51.535 83.19H46.837L52.183 76.386H56.989L62.335 83.19H57.637ZM54.613 135.408C52.831 135.408 51.427 134.004 51.427 132.276C51.427 130.548 52.831 129.09 54.613 129.09C56.341 129.09 57.745 130.548 57.745 132.276C57.745 134.004 56.341 135.408 54.613 135.408ZM70.262 86.7H97.532V91.452H86.354V124.5H81.386V91.452H70.262V86.7ZM112.924 86.7H140.194V91.452H129.016V124.5H124.048V91.452H112.924V86.7ZM168.546 102.738V86.7H173.514V124.5H168.546V107.49H150.186V124.5H145.164V86.7H150.186V102.738H168.546ZM211.844 124.5H206.498L203.42 116.022H186.41L183.332 124.5H177.986L192.08 86.7H197.75L211.844 124.5ZM194.888 92.694L188.138 111.324H201.692L194.888 92.694ZM233.917 86.7H239.533L226.141 109.218V124.5H221.119V109.164L207.781 86.7H213.397L223.657 104.412L233.917 86.7ZM258.838 86.7H273.58C278.71 86.7 282.976 88.536 286.378 92.208C289.78 95.826 291.508 100.308 291.508 105.6C291.508 110.892 289.78 115.374 286.378 119.046C282.976 122.664 278.71 124.5 273.58 124.5H258.838V108.246H255.436V103.926H258.838V86.7ZM263.86 119.748H273.58C277.414 119.748 280.6 118.398 283.03 115.698C285.46 112.998 286.702 109.65 286.702 105.6C286.702 101.55 285.46 98.202 283.03 95.502C280.6 92.802 277.414 91.452 273.58 91.452H263.86V103.926H273.364V108.246H263.86V119.748ZM318.139 83.19L315.115 79.086L312.037 83.19H307.339L312.685 76.386H317.491L322.837 83.19H318.139ZM334.771 105.6C334.771 111.054 332.881 115.644 329.047 119.478C325.267 123.312 320.623 125.202 315.169 125.202C309.715 125.202 305.071 123.312 301.291 119.478C297.511 115.644 295.621 111.054 295.621 105.6C295.621 100.146 297.511 95.502 301.291 91.722C305.071 87.888 309.715 85.998 315.169 85.998C320.623 85.998 325.267 87.888 329.047 91.722C332.881 95.502 334.771 100.146 334.771 105.6ZM329.749 105.6C329.749 101.442 328.345 97.932 325.537 95.124C322.783 92.262 319.327 90.858 315.169 90.858C311.011 90.858 307.555 92.262 304.747 95.124C301.993 97.932 300.589 101.442 300.589 105.6C300.589 109.758 301.993 113.214 304.747 116.076C307.555 118.884 311.011 120.288 315.169 120.288C319.327 120.288 322.783 118.884 325.537 116.076C328.345 113.214 329.749 109.758 329.749 105.6ZM323.755 78.222H320.677C320.677 76.008 320.731 75.468 321.703 74.712C321.703 74.712 322.459 74.28 322.459 74.226C322.783 74.064 323.431 73.794 323.431 72.984C323.431 72.498 323.053 72.12 322.189 72.12C321.271 72.12 320.299 72.498 319.867 73.686L317.059 72.498C318.031 70.122 319.975 69.15 322.189 69.15C324.565 69.15 326.509 70.338 326.509 72.93C326.509 74.82 325.591 75.954 324.619 76.44C323.971 76.764 323.593 77.034 323.755 78.222ZM340.809 124.5V86.7H345.831V124.5H340.809Z" fill="url(#paint0_linear_110_2229)"/>
</g>
<g clip-path="url(#clip1_110_2229)">
<path d="M28.0371 50.888V22.7H33.0591V60.5H29.0091L9.56907 32.258V60.5H4.54707V22.7H8.59707L28.0371 50.888ZM64.5267 38.738V22.7H69.4947V60.5H64.5267V43.49H46.1667V60.5H41.1447V22.7H46.1667V38.738H64.5267ZM107.824 60.5H102.478L99.4002 52.022H82.3902L79.3122 60.5H73.9662L88.0602 22.7H93.7302L107.824 60.5ZM90.8682 28.694L84.1182 47.324H97.6722L90.8682 28.694ZM93.8382 19.19L90.8142 15.086L87.7362 19.19H83.0382L88.3842 12.386H93.1902L98.5362 19.19H93.8382ZM96.2142 14.222L100.21 7.58H105.556L100.426 14.222H96.2142ZM135.773 50.888V22.7H140.795V60.5H136.745L117.305 32.258V60.5H112.283V22.7H116.333L135.773 50.888ZM172.641 41.06L189.867 60.5H183.711L167.403 42.356V60.5H162.381V22.7H167.403V39.764L183.171 22.7H189.327L172.641 41.06ZM208.486 19.19L205.462 15.086L202.384 19.19H197.686L203.032 12.386H207.838L213.184 19.19H208.486ZM199.36 43.76V55.748H216.91V60.5H194.338V22.7H216.64V27.452H199.36V39.062H215.29V43.76H199.36ZM210.862 14.222L214.858 7.58H220.204L215.074 14.222H210.862ZM219.895 22.7H247.165V27.452H235.987V60.5H231.019V27.452H219.895V22.7ZM289.125 50.888V22.7H294.147V60.5H290.097L270.657 32.258V60.5H265.635V22.7H269.685L289.125 50.888ZM322.753 19.19L319.729 15.086L316.651 19.19H311.953L317.299 12.386H322.105L327.451 19.19H322.753ZM339.385 41.6C339.385 47.054 337.495 51.644 333.661 55.478C329.881 59.312 325.237 61.202 319.783 61.202C314.329 61.202 309.685 59.312 305.905 55.478C302.125 51.644 300.235 47.054 300.235 41.6C300.235 36.146 302.125 31.502 305.905 27.722C309.685 23.888 314.329 21.998 319.783 21.998C325.237 21.998 329.881 23.888 333.661 27.722C337.495 31.502 339.385 36.146 339.385 41.6ZM334.363 41.6C334.363 37.442 332.959 33.932 330.151 31.124C327.397 28.262 323.941 26.858 319.783 26.858C315.625 26.858 312.169 28.262 309.361 31.124C306.607 33.932 305.203 37.442 305.203 41.6C305.203 45.758 306.607 49.214 309.361 52.076C312.169 54.884 315.625 56.288 319.783 56.288C323.941 56.288 327.397 54.884 330.151 52.076C332.959 49.214 334.363 45.758 334.363 41.6ZM325.129 14.222L329.125 7.58H334.471L329.341 14.222H325.129ZM345.422 60.5V22.7H350.444V60.5H345.422Z" fill="url(#paint1_linear_110_2229)"/>
</g>
<defs>
<linearGradient id="paint0_linear_110_2229" x1="191.565" y1="14" x2="191.565" y2="125" gradientUnits="userSpaceOnUse">
<stop stop-color="#FFD683"/>
<stop offset="1" stop-color="#EE813D"/>
</linearGradient>
<linearGradient id="paint1_linear_110_2229" x1="192.444" y1="14" x2="192.444" y2="125" gradientUnits="userSpaceOnUse">
<stop stop-color="#FFD683"/>
<stop offset="1" stop-color="#EE813D"/>
</linearGradient>
<clipPath id="clip0_110_2229">
<rect width="355" height="75" fill="white" transform="matrix(-1 0 0 1 355 67)"/>
</clipPath>
<clipPath id="clip1_110_2229">
<rect width="355" height="67" fill="white" transform="matrix(-1 0 0 1 355 0)"/>
</clipPath>
</defs>
</svg>
