<svg width="350" height="149" viewBox="0 0 350 149" fill="none" xmlns="http://www.w3.org/2000/svg">
<path d="M0 63.405V3.20703H4.46514V63.405H0ZM6.95352 7.42705V3.20703H15.721V7.42705H6.95352ZM6.95352 32.9068V28.6868H15.721V32.9068H6.95352ZM18.1861 32.9068V28.6868H18.6745C21.8838 28.6868 24.4187 27.7516 26.2792 25.8354C28.1629 23.9421 29.0932 21.3645 29.0932 18.1254V17.806C29.0932 14.6581 28.1629 12.1489 26.2792 10.2556C24.3955 8.36229 21.8606 7.40424 18.6745 7.40424H18.1861V3.20703H18.8373C23.2559 3.20703 26.8373 4.55287 29.5815 7.26737C32.3257 9.98187 33.7211 13.4947 33.7211 17.806V18.1254C33.7211 22.5735 32.349 26.132 29.5815 28.8465C26.8141 31.561 23.2327 32.9068 18.8373 32.9068H18.1861Z" fill="url(#paint0_radial_237_3419)"/>
<path d="M41.0221 3.20703H45.4872V56.5845H41.0221V3.20703ZM41.0221 59.185H70.3013V63.405H41.0221V59.185Z" fill="url(#paint1_radial_237_3419)"/>
<path d="M75.2556 3.20703H79.7208V44.4263H75.2556V3.20703ZM109.023 48.1445C109.023 52.912 107.419 56.8583 104.233 59.9834C101.023 63.1313 96.9999 64.6824 92.1627 64.6824C87.3022 64.6824 83.2789 63.1085 80.0929 59.9834C76.8836 56.8355 75.3022 52.8892 75.3022 48.1445V47.004H79.7673V48.1445C79.7673 51.6118 80.9068 54.5316 83.1627 56.9039C85.4185 59.2762 88.4185 60.4852 92.186 60.4852C95.9302 60.4852 98.9302 59.299 101.209 56.9039C103.465 54.5316 104.605 51.6118 104.605 48.1445V47.004H109.07V48.1445H109.023ZM104.558 3.20703H109.023V44.4263H104.558V3.20703Z" fill="url(#paint2_radial_237_3419)"/>
<path d="M153.674 19.5857H149.209V18.4451C149.209 14.9779 148.07 12.0581 145.814 9.68574C143.558 7.31341 140.535 6.10443 136.791 6.10443C133.046 6.10443 130.023 7.2906 127.767 9.68574C125.511 12.0581 124.372 14.9779 124.372 18.4451V19.5857H119.907V18.4451C119.907 13.6777 121.511 9.73137 124.698 6.60627C127.93 3.48118 131.953 1.90723 136.814 1.90723C141.674 1.90723 145.698 3.48118 148.884 6.60627C152.07 9.75418 153.674 13.7005 153.674 18.4451V19.5857ZM119.93 22.1861H124.395V44.4267H119.93V22.1861ZM153.674 48.1449C153.674 52.9124 152.07 56.8587 148.884 59.9838C145.674 63.1317 141.651 64.6828 136.814 64.6828C131.953 64.6828 127.93 63.1089 124.744 59.9838C121.535 56.8359 119.953 52.8896 119.953 48.1449V47.0044H124.418V48.1449C124.418 51.6122 125.558 54.532 127.814 56.9043C130.07 59.2766 133.07 60.4856 136.837 60.4856C140.581 60.4856 143.581 59.2995 145.86 56.9043C148.116 54.532 149.256 51.6122 149.256 48.1449V47.0044H153.721V48.1449H153.674ZM136.814 33.3863H153.698V37.6063H136.814V33.3863ZM149.209 40.0471H153.674V44.4267H149.209V40.0471Z" fill="url(#paint3_radial_237_3419)"/>
<path d="M181.14 3.20703H209.256V7.42705H181.14V3.20703ZM181.14 59.185H209.256V63.405H181.14V59.185ZM193.047 10.0275H197.512V56.6073H193.047V10.0275Z" fill="url(#paint4_radial_237_3419)"/>
<path d="M215.536 3.20789H220.001V63.4059H215.536V3.20789ZM222.49 3.68692L226.629 2.70605L242.35 62.904L238.211 64.0446L222.49 3.68692ZM244.815 3.20789H249.28V63.4059H244.815V3.20789Z" fill="url(#paint5_radial_237_3419)"/>
<path d="M276.184 1.29883H311.579V5.51884H276.184V1.29883ZM291.718 8.11929H296.184V61.4968H291.718V8.11929Z" fill="url(#paint6_radial_237_3419)"/>
<path d="M349.624 17.6784H345.159V16.5379C345.159 13.0706 344.019 10.1509 341.764 7.77852C339.508 5.40618 336.484 4.19721 332.74 4.19721C328.996 4.19721 325.973 5.38337 323.717 7.77852C321.461 10.1509 320.322 13.0706 320.322 16.5379V17.6784H315.856V16.5379C315.856 11.7704 317.461 7.82414 320.647 4.69905C323.856 1.55114 327.88 0 332.717 0C337.577 0 341.601 1.57395 344.787 4.69905C347.973 7.84695 349.577 11.7932 349.577 16.5379V17.6784H349.624ZM315.88 20.2789H320.345V42.5195H315.88V20.2789ZM349.624 46.2377C349.624 51.0052 348.019 54.9515 344.833 58.0766C341.624 61.2245 337.601 62.7756 332.763 62.7756C327.903 62.7756 323.88 61.2016 320.694 58.0766C317.484 54.9286 315.903 50.9824 315.903 46.2377V45.0972H320.368V46.2377C320.368 49.705 321.508 52.6248 323.763 54.9971C326.019 57.3694 329.019 58.5784 332.787 58.5784C336.531 58.5784 339.531 57.3922 341.81 54.9971C344.066 52.6248 345.205 49.705 345.205 46.2377V45.0972H349.671V46.2377H349.624ZM345.159 20.2789H349.624V42.5195H345.159V20.2789Z" fill="url(#paint7_radial_237_3419)"/>
<path d="M0.463867 87.1641H4.929V147.362H0.463867V87.1641ZM7.41736 87.1641H31.3942V91.3841H7.41736V87.1641ZM7.41736 118.483H31.3942V122.703H7.41736V118.483ZM7.41736 143.142H31.3942V147.362H7.41736V143.142Z" fill="url(#paint8_radial_237_3419)"/>
<path d="M54.2316 147.522L50.0921 148.161L39.0222 87.3241L43.3246 86.5029L54.2316 147.522ZM57.3712 147.522L68.2782 86.5029L72.5805 87.3241L61.4874 148.161L57.3712 147.522Z" fill="url(#paint9_radial_237_3419)"/>
<path d="M114.953 103.543H110.488V102.402C110.488 98.9349 109.349 96.0151 107.093 93.6428C104.837 91.2704 101.814 90.0615 98.0695 90.0615C94.3253 90.0615 91.302 91.2476 89.0462 93.6428C86.7904 96.0151 85.6508 98.9349 85.6508 102.402V103.543H81.1857V102.402C81.1857 97.6347 82.7903 93.6884 85.9764 90.5633C89.1857 87.4382 93.209 85.8643 98.0695 85.8643C102.93 85.8643 106.953 87.4382 110.139 90.5633C113.325 93.7112 114.93 97.6575 114.93 102.402V103.543H114.953ZM81.2089 106.143H85.6741V128.384H81.2089V106.143ZM114.953 132.102C114.953 136.869 113.349 140.816 110.163 143.941C106.953 147.089 102.93 148.64 98.0927 148.64C93.2322 148.64 89.209 147.066 86.0229 143.941C82.8136 140.793 81.2322 136.847 81.2322 132.102V130.961H85.6973V132.102C85.6973 135.569 86.8369 138.489 89.0927 140.861C91.3485 143.234 94.3485 144.443 98.116 144.443C101.86 144.443 104.86 143.256 107.139 140.861C109.395 138.489 110.535 135.569 110.535 132.102V130.961H115V132.102H114.953ZM110.488 106.143H114.953V128.384H110.488V106.143Z" fill="url(#paint10_radial_237_3419)"/>
<path d="M126.186 87.1641H130.651V140.542H126.186V87.1641ZM126.186 143.142H155.465V147.362H126.186V143.142Z" fill="url(#paint11_radial_237_3419)"/>
<path d="M160.444 87.1641H164.909V128.383H160.444V87.1641ZM194.188 132.102C194.188 136.869 192.583 140.815 189.397 143.94C186.188 147.088 182.165 148.639 177.327 148.639C172.467 148.639 168.444 147.065 165.258 143.94C162.048 140.792 160.467 136.846 160.467 132.102V130.961H164.932V132.102C164.932 135.569 166.072 138.489 168.327 140.861C170.583 143.233 173.583 144.442 177.351 144.442C181.095 144.442 184.095 143.256 186.374 140.861C188.63 138.489 189.769 135.569 189.769 132.102V130.961H194.234V132.102H194.188ZM189.723 87.1641H194.188V128.383H189.723V87.1641Z" fill="url(#paint12_radial_237_3419)"/>
<path d="M198.49 87.1641H233.886V91.3841H198.49V87.1641ZM214.025 93.9845H218.49V147.362H214.025V93.9845Z" fill="url(#paint13_radial_237_3419)"/>
<path d="M237.187 87.1641H265.304V91.3841H237.187V87.1641ZM237.187 143.142H265.304V147.362H237.187V143.142ZM249.094 93.9845H253.559V140.564H249.094V93.9845Z" fill="url(#paint14_radial_237_3419)"/>
<path d="M305.026 103.543H300.561V102.402C300.561 98.9349 299.421 96.0151 297.165 93.6428C294.909 91.2704 291.886 90.0615 288.142 90.0615C284.398 90.0615 281.374 91.2476 279.119 93.6428C276.863 96.0151 275.723 98.9349 275.723 102.402V103.543H271.258V102.402C271.258 97.6347 272.863 93.6884 276.049 90.5633C279.258 87.4382 283.281 85.8643 288.142 85.8643C293.002 85.8643 297.026 87.4382 300.212 90.5633C303.398 93.7112 305.002 97.6575 305.002 102.402V103.543H305.026ZM271.258 106.143H275.723V128.384H271.258V106.143ZM305.026 132.102C305.026 136.869 303.421 140.816 300.235 143.941C297.026 147.089 293.002 148.64 288.165 148.64C283.305 148.64 279.281 147.066 276.095 143.941C272.886 140.793 271.305 136.847 271.305 132.102V130.961H275.77V132.102C275.77 135.569 276.909 138.489 279.165 140.861C281.421 143.234 284.421 144.443 288.188 144.443C291.933 144.443 294.933 143.256 297.212 140.861C299.468 138.489 300.607 135.569 300.607 132.102V130.961H305.072V132.102H305.026ZM300.561 106.143H305.026V128.384H300.561V106.143Z" fill="url(#paint15_radial_237_3419)"/>
<path d="M316.256 87.1639H320.721V147.362H316.256V87.1639ZM323.209 87.643L327.349 86.6621L343.07 146.86L338.93 148.001L323.209 87.643ZM345.535 87.1639H350V147.362H345.535V87.1639Z" fill="url(#paint16_radial_237_3419)"/>
<defs>
<radialGradient id="paint0_radial_237_3419" cx="0" cy="0" r="1" gradientUnits="userSpaceOnUse" gradientTransform="translate(17.2968 58.053) rotate(-90) scale(93.384 15.7387)">
<stop stop-color="#FFC650"/>
<stop offset="1" stop-color="#DE8900"/>
</radialGradient>
<radialGradient id="paint1_radial_237_3419" cx="0" cy="0" r="1" gradientUnits="userSpaceOnUse" gradientTransform="translate(56.0405 58.053) rotate(-90) scale(93.384 13.6655)">
<stop stop-color="#FFC650"/>
<stop offset="1" stop-color="#DE8900"/>
</radialGradient>
<radialGradient id="paint2_radial_237_3419" cx="0" cy="0" r="1" gradientUnits="userSpaceOnUse" gradientTransform="translate(92.6002 59.2169) rotate(-90) scale(95.3657 15.7821)">
<stop stop-color="#FFC650"/>
<stop offset="1" stop-color="#DE8900"/>
</radialGradient>
<radialGradient id="paint3_radial_237_3419" cx="0" cy="0" r="1" gradientUnits="userSpaceOnUse" gradientTransform="translate(137.251 59.1017) rotate(-90) scale(97.3827 15.7821)">
<stop stop-color="#FFC650"/>
<stop offset="1" stop-color="#DE8900"/>
</radialGradient>
<radialGradient id="paint4_radial_237_3419" cx="0" cy="0" r="1" gradientUnits="userSpaceOnUse" gradientTransform="translate(195.562 58.053) rotate(-90) scale(93.384 13.1228)">
<stop stop-color="#FFC650"/>
<stop offset="1" stop-color="#DE8900"/>
</radialGradient>
<radialGradient id="paint5_radial_237_3419" cx="0" cy="0" r="1" gradientUnits="userSpaceOnUse" gradientTransform="translate(232.845 58.5912) rotate(-90) scale(95.1533 15.7496)">
<stop stop-color="#FFC650"/>
<stop offset="1" stop-color="#DE8900"/>
</radialGradient>
<radialGradient id="paint6_radial_237_3419" cx="0" cy="0" r="1" gradientUnits="userSpaceOnUse" gradientTransform="translate(294.339 56.1448) rotate(-90) scale(93.384 16.5202)">
<stop stop-color="#FFC650"/>
<stop offset="1" stop-color="#DE8900"/>
</radialGradient>
<radialGradient id="paint7_radial_237_3419" cx="0" cy="0" r="1" gradientUnits="userSpaceOnUse" gradientTransform="translate(333.201 57.1945) rotate(-90) scale(97.3827 15.7821)">
<stop stop-color="#FFC650"/>
<stop offset="1" stop-color="#DE8900"/>
</radialGradient>
<radialGradient id="paint8_radial_237_3419" cx="0" cy="0" r="1" gradientUnits="userSpaceOnUse" gradientTransform="translate(16.3292 142.01) rotate(-90) scale(93.384 14.4362)">
<stop stop-color="#FFC650"/>
<stop offset="1" stop-color="#DE8900"/>
</radialGradient>
<radialGradient id="paint9_radial_237_3419" cx="0" cy="0" r="1" gradientUnits="userSpaceOnUse" gradientTransform="translate(56.2356 142.679) rotate(-90) scale(95.6487 15.6627)">
<stop stop-color="#FFC650"/>
<stop offset="1" stop-color="#DE8900"/>
</radialGradient>
<radialGradient id="paint10_radial_237_3419" cx="0" cy="0" r="1" gradientUnits="userSpaceOnUse" gradientTransform="translate(98.5302 143.059) rotate(-90) scale(97.3827 15.7821)">
<stop stop-color="#FFC650"/>
<stop offset="1" stop-color="#DE8900"/>
</radialGradient>
<radialGradient id="paint11_radial_237_3419" cx="0" cy="0" r="1" gradientUnits="userSpaceOnUse" gradientTransform="translate(141.204 142.01) rotate(-90) scale(93.384 13.6655)">
<stop stop-color="#FFC650"/>
<stop offset="1" stop-color="#DE8900"/>
</radialGradient>
<radialGradient id="paint12_radial_237_3419" cx="0" cy="0" r="1" gradientUnits="userSpaceOnUse" gradientTransform="translate(177.776 143.174) rotate(-90) scale(95.3657 15.7713)">
<stop stop-color="#FFC650"/>
<stop offset="1" stop-color="#DE8900"/>
</radialGradient>
<radialGradient id="paint13_radial_237_3419" cx="0" cy="0" r="1" gradientUnits="userSpaceOnUse" gradientTransform="translate(216.646 142.01) rotate(-90) scale(93.384 16.5202)">
<stop stop-color="#FFC650"/>
<stop offset="1" stop-color="#DE8900"/>
</radialGradient>
<radialGradient id="paint14_radial_237_3419" cx="0" cy="0" r="1" gradientUnits="userSpaceOnUse" gradientTransform="translate(251.609 142.01) rotate(-90) scale(93.384 13.1228)">
<stop stop-color="#FFC650"/>
<stop offset="1" stop-color="#DE8900"/>
</radialGradient>
<radialGradient id="paint15_radial_237_3419" cx="0" cy="0" r="1" gradientUnits="userSpaceOnUse" gradientTransform="translate(288.603 143.059) rotate(-90) scale(97.3827 15.7821)">
<stop stop-color="#FFC650"/>
<stop offset="1" stop-color="#DE8900"/>
</radialGradient>
<radialGradient id="paint16_radial_237_3419" cx="0" cy="0" r="1" gradientUnits="userSpaceOnUse" gradientTransform="translate(333.564 142.547) rotate(-90) scale(95.1533 15.7496)">
<stop stop-color="#FFC650"/>
<stop offset="1" stop-color="#DE8900"/>
</radialGradient>
</defs>
</svg>
