<svg width="466" height="41" viewBox="0 0 466 41" fill="none" xmlns="http://www.w3.org/2000/svg">
<path d="M-1.87527e-05 39.7345V0.838728H2.83067V39.7345H-1.87527e-05ZM4.40328 3.56458V0.838728H9.95982V3.56458H4.40328ZM11.5324 20.0245V17.2987H11.8469C13.8739 17.2987 15.4814 16.7046 16.6696 15.5164C17.8578 14.2583 18.4519 12.5809 18.4519 10.484V10.2744C18.4519 8.24745 17.8578 6.6399 16.6696 5.45171C15.4814 4.19362 13.8739 3.56458 11.8469 3.56458H11.5324V0.838728H11.9518C14.7475 0.838728 17.0191 1.7124 18.7664 3.45974C20.5138 5.20708 21.3874 7.47862 21.3874 10.2744V10.484C21.3874 13.3497 20.5138 15.6562 18.7664 17.4035C17.0191 19.1509 14.7475 20.0245 11.9518 20.0245H11.5324ZM4.40328 20.0245V17.2987H9.95982V20.0245H4.40328ZM26.0053 0.838728H28.836V35.3312H26.0053V0.838728ZM26.0053 37.0087H44.5621V39.7345H26.0053V37.0087ZM47.7057 0.838728H50.5363V27.4682H47.7057V0.838728ZM66.2624 0.838728H69.0931V27.4682H66.2624V0.838728ZM69.0931 29.8795C69.0931 32.9548 68.0796 35.506 66.0527 37.5329C64.0258 39.5598 61.4747 40.5733 58.3994 40.5733C55.3241 40.5733 52.7729 39.5598 50.746 37.5329C48.7191 35.506 47.7057 32.9548 47.7057 29.8795V29.1456H50.5363V29.8795C50.5363 32.1161 51.2353 34.0033 52.6332 35.5409C54.1009 37.0786 56.023 37.8474 58.3994 37.8474C60.7758 37.8474 62.6629 37.0786 64.0608 35.5409C65.5285 34.0033 66.2624 32.1161 66.2624 29.8795V29.1456H69.0931V29.8795ZM97.3509 11.4276H94.5202V10.6937C94.5202 8.45713 93.7863 6.57 92.3185 5.03234C90.9207 3.49469 89.0335 2.72586 86.6571 2.72586C84.2808 2.72586 82.3587 3.49469 80.8909 5.03234C79.493 6.57 78.7941 8.45713 78.7941 10.6937V11.4276H75.9634V10.6937C75.9634 7.61841 76.9769 5.06729 79.0038 3.04038C81.0307 1.01346 83.5818 6.1997e-06 86.6571 6.1997e-06C89.7325 6.1997e-06 92.2836 1.01346 94.3105 3.04038C96.3374 5.06729 97.3509 7.61841 97.3509 10.6937V11.4276ZM75.9634 13.1051H78.7941V27.4682H75.9634V13.1051ZM86.6571 20.339H97.3509V23.0649H86.6571V20.339ZM94.5202 24.6375H97.3509V27.4682H94.5202V24.6375ZM97.3509 29.8795C97.3509 32.9548 96.3374 35.506 94.3105 37.5329C92.2836 39.5598 89.7325 40.5733 86.6571 40.5733C83.5818 40.5733 81.0307 39.5598 79.0038 37.5329C76.9769 35.506 75.9634 32.9548 75.9634 29.8795V29.1456H78.7941V29.8795C78.7941 32.1161 79.493 34.0033 80.8909 35.5409C82.3587 37.0786 84.2808 37.8474 86.6571 37.8474C89.0335 37.8474 90.9207 37.0786 92.3185 35.5409C93.7863 34.0033 94.5202 32.1161 94.5202 29.8795V29.1456H97.3509V29.8795ZM114.693 0.838728H132.516V3.56458H114.693V0.838728ZM122.241 5.24203H125.072V35.3312H122.241V5.24203ZM114.693 37.0087H132.516V39.7345H114.693V37.0087ZM140.88 1.15325L143.501 0.524208L153.461 39.42L150.84 40.1539L140.88 1.15325ZM136.477 0.838728H139.308V39.7345H136.477V0.838728ZM155.034 0.838728H157.864V39.7345H155.034V0.838728ZM175.484 0.838728H197.92V3.56458H175.484V0.838728ZM185.339 5.24203H188.17V39.7345H185.339V5.24203ZM222.054 11.4276H219.223V10.6937C219.223 8.45713 218.489 6.57 217.021 5.03234C215.623 3.49469 213.736 2.72586 211.36 2.72586C208.984 2.72586 207.061 3.49469 205.594 5.03234C204.196 6.57 203.497 8.45713 203.497 10.6937V11.4276H200.666V10.6937C200.666 7.61841 201.68 5.06729 203.707 3.04038C205.733 1.01346 208.285 6.1997e-06 211.36 6.1997e-06C214.435 6.1997e-06 216.986 1.01346 219.013 3.04038C221.04 5.06729 222.054 7.61841 222.054 10.6937V11.4276ZM200.666 13.1051H203.497V27.4682H200.666V13.1051ZM219.223 13.1051H222.054V27.4682H219.223V13.1051ZM222.054 29.8795C222.054 32.9548 221.04 35.506 219.013 37.5329C216.986 39.5598 214.435 40.5733 211.36 40.5733C208.285 40.5733 205.733 39.5598 203.707 37.5329C201.68 35.506 200.666 32.9548 200.666 29.8795V29.1456H203.497V29.8795C203.497 32.1161 204.196 34.0033 205.594 35.5409C207.061 37.0786 208.984 37.8474 211.36 37.8474C213.736 37.8474 215.623 37.0786 217.021 35.5409C218.489 34.0033 219.223 32.1161 219.223 29.8795V29.1456H222.054V29.8795ZM243.774 0.838728H246.605V39.7345H243.774V0.838728ZM248.178 0.838728H263.38V3.56458H248.178V0.838728ZM248.178 21.0729H263.38V23.7988H248.178V21.0729ZM248.178 37.0087H263.38V39.7345H248.178V37.0087ZM277.85 39.8394L275.229 40.2587L268.205 0.94357L270.931 0.419366L277.85 39.8394ZM279.842 39.8394L286.761 0.419366L289.487 0.94357L282.463 40.2587L279.842 39.8394ZM316.349 11.4276H313.518V10.6937C313.518 8.45713 312.784 6.57 311.316 5.03234C309.918 3.49469 308.031 2.72586 305.655 2.72586C303.278 2.72586 301.356 3.49469 299.889 5.03234C298.491 6.57 297.792 8.45713 297.792 10.6937V11.4276H294.961V10.6937C294.961 7.61841 295.975 5.06729 298.002 3.04038C300.028 1.01346 302.58 6.1997e-06 305.655 6.1997e-06C308.73 6.1997e-06 311.281 1.01346 313.308 3.04038C315.335 5.06729 316.349 7.61841 316.349 10.6937V11.4276ZM294.961 13.1051H297.792V27.4682H294.961V13.1051ZM313.518 13.1051H316.349V27.4682H313.518V13.1051ZM316.349 29.8795C316.349 32.9548 315.335 35.506 313.308 37.5329C311.281 39.5598 308.73 40.5733 305.655 40.5733C302.58 40.5733 300.028 39.5598 298.002 37.5329C295.975 35.506 294.961 32.9548 294.961 29.8795V29.1456H297.792V29.8795C297.792 32.1161 298.491 34.0033 299.889 35.5409C301.356 37.0786 303.278 37.8474 305.655 37.8474C308.031 37.8474 309.918 37.0786 311.316 35.5409C312.784 34.0033 313.518 32.1161 313.518 29.8795V29.1456H316.349V29.8795ZM323.429 0.838728H326.259V35.3312H323.429V0.838728ZM323.429 37.0087H341.985V39.7345H323.429V37.0087ZM345.129 0.838728H347.96V27.4682H345.129V0.838728ZM363.686 0.838728H366.516V27.4682H363.686V0.838728ZM366.516 29.8795C366.516 32.9548 365.503 35.506 363.476 37.5329C361.449 39.5598 358.898 40.5733 355.823 40.5733C352.747 40.5733 350.196 39.5598 348.169 37.5329C346.142 35.506 345.129 32.9548 345.129 29.8795V29.1456H347.96V29.8795C347.96 32.1161 348.659 34.0033 350.056 35.5409C351.524 37.0786 353.446 37.8474 355.823 37.8474C358.199 37.8474 360.086 37.0786 361.484 35.5409C362.952 34.0033 363.686 32.1161 363.686 29.8795V29.1456H366.516V29.8795ZM369.193 0.838728H391.629V3.56458H369.193V0.838728ZM379.048 5.24203H381.879V39.7345H379.048V5.24203ZM393.79 0.838728H411.612V3.56458H393.79V0.838728ZM401.338 5.24203H404.169V35.3312H401.338V5.24203ZM393.79 37.0087H411.612V39.7345H393.79V37.0087ZM436.751 11.4276H433.921V10.6937C433.921 8.45713 433.187 6.57 431.719 5.03234C430.321 3.49469 428.434 2.72586 426.058 2.72586C423.681 2.72586 421.759 3.49469 420.291 5.03234C418.893 6.57 418.195 8.45713 418.195 10.6937V11.4276H415.364V10.6937C415.364 7.61841 416.377 5.06729 418.404 3.04038C420.431 1.01346 422.982 6.1997e-06 426.058 6.1997e-06C429.133 6.1997e-06 431.684 1.01346 433.711 3.04038C435.738 5.06729 436.751 7.61841 436.751 10.6937V11.4276ZM415.364 13.1051H418.195V27.4682H415.364V13.1051ZM433.921 13.1051H436.751V27.4682H433.921V13.1051ZM436.751 29.8795C436.751 32.9548 435.738 35.506 433.711 37.5329C431.684 39.5598 429.133 40.5733 426.058 40.5733C422.982 40.5733 420.431 39.5598 418.404 37.5329C416.377 35.506 415.364 32.9548 415.364 29.8795V29.1456H418.195V29.8795C418.195 32.1161 418.893 34.0033 420.291 35.5409C421.759 37.0786 423.681 37.8474 426.058 37.8474C428.434 37.8474 430.321 37.0786 431.719 35.5409C433.187 34.0033 433.921 32.1161 433.921 29.8795V29.1456H436.751V29.8795ZM448.235 1.15325L450.856 0.524208L460.815 39.42L458.194 40.1539L448.235 1.15325ZM443.831 0.838728H446.662V39.7345H443.831V0.838728ZM462.388 0.838728H465.219V39.7345H462.388V0.838728Z" fill="#FF9600"/>
</svg>
