<svg width="332" height="125" viewBox="0 0 332 125" fill="none" xmlns="http://www.w3.org/2000/svg">
<g clip-path="url(#clip0_110_2227)">
<path d="M312.541 71.6259L315.661 71.2489L326.941 124.026L323.821 124.403L312.541 71.6259ZM307.501 71.5317H310.741V124.12H307.501V71.5317ZM328.741 71.5317H331.981V124.12H328.741V71.5317Z" fill="white"/>
<path d="M312.541 71.6259L315.661 71.2489L326.941 124.026L323.821 124.403L312.541 71.6259ZM307.501 71.5317H310.741V124.12H307.501V71.5317ZM328.741 71.5317H331.981V124.12H328.741V71.5317Z" fill="url(#paint0_radial_110_2227)"/>
<path d="M299.397 80.9559H296.157V80.2962C296.157 78.2857 295.317 76.5892 293.637 75.207C292.037 73.8247 289.877 73.1336 287.157 73.1336C284.437 73.1336 282.237 73.8247 280.557 75.207C278.957 76.5892 278.157 78.2857 278.157 80.2962V80.9559H274.917V80.2962C274.917 77.5317 276.077 75.2384 278.397 73.4163C280.717 71.5943 283.637 70.6832 287.157 70.6832C290.677 70.6832 293.597 71.5943 295.917 73.4163C298.237 75.2384 299.397 77.5317 299.397 80.2962V80.9559ZM274.917 82.4639H278.157V113.188H274.917V82.4639ZM296.157 82.4639H299.397V113.188H296.157V82.4639ZM299.397 115.355C299.397 118.12 298.237 120.413 295.917 122.235C293.597 124.057 290.677 124.968 287.157 124.968C283.637 124.968 280.717 124.057 278.397 122.235C276.077 120.413 274.917 118.12 274.917 115.355V114.696H278.157V115.355C278.157 117.366 278.957 119.062 280.557 120.445C282.237 121.827 284.437 122.518 287.157 122.518C289.877 122.518 292.037 121.827 293.637 120.445C295.317 119.062 296.157 117.366 296.157 115.355V114.696H299.397V115.355Z" fill="white"/>
<path d="M299.397 80.9559H296.157V80.2962C296.157 78.2857 295.317 76.5892 293.637 75.207C292.037 73.8247 289.877 73.1336 287.157 73.1336C284.437 73.1336 282.237 73.8247 280.557 75.207C278.957 76.5892 278.157 78.2857 278.157 80.2962V80.9559H274.917V80.2962C274.917 77.5317 276.077 75.2384 278.397 73.4163C280.717 71.5943 283.637 70.6832 287.157 70.6832C290.677 70.6832 293.597 71.5943 295.917 73.4163C298.237 75.2384 299.397 77.5317 299.397 80.2962V80.9559ZM274.917 82.4639H278.157V113.188H274.917V82.4639ZM296.157 82.4639H299.397V113.188H296.157V82.4639ZM299.397 115.355C299.397 118.12 298.237 120.413 295.917 122.235C293.597 124.057 290.677 124.968 287.157 124.968C283.637 124.968 280.717 124.057 278.397 122.235C276.077 120.413 274.917 118.12 274.917 115.355V114.696H278.157V115.355C278.157 117.366 278.957 119.062 280.557 120.445C282.237 121.827 284.437 122.518 287.157 122.518C289.877 122.518 292.037 121.827 293.637 120.445C295.317 119.062 296.157 117.366 296.157 115.355V114.696H299.397V115.355Z" fill="url(#paint1_radial_110_2227)"/>
<path d="M250.224 71.5318H270.624V73.9822H250.224V71.5318ZM258.864 75.4901H262.104V120.162H258.864V75.4901ZM250.224 121.67H270.624V124.121H250.224V121.67Z" fill="white"/>
<path d="M250.224 71.5318H270.624V73.9822H250.224V71.5318ZM258.864 75.4901H262.104V120.162H258.864V75.4901ZM250.224 121.67H270.624V124.121H250.224V121.67Z" fill="url(#paint2_radial_110_2227)"/>
<path d="M221.719 71.5318H247.399V73.9822H221.719V71.5318ZM232.999 75.4901H236.239V124.121H232.999V75.4901Z" fill="white"/>
<path d="M221.719 71.5318H247.399V73.9822H221.719V71.5318ZM232.999 75.4901H236.239V124.121H232.999V75.4901Z" fill="url(#paint3_radial_110_2227)"/>
<path d="M194.175 71.5318H197.415V113.188H194.175V71.5318ZM215.415 71.5318H218.655V113.188H215.415V71.5318ZM218.655 115.356C218.655 118.12 217.495 120.414 215.175 122.236C212.855 124.058 209.935 124.969 206.415 124.969C202.895 124.969 199.975 124.058 197.655 122.236C195.335 120.414 194.175 118.12 194.175 115.356V114.696H197.415V115.356C197.415 117.366 198.215 119.063 199.815 120.445C201.495 121.827 203.695 122.518 206.415 122.518C209.135 122.518 211.295 121.827 212.895 120.445C214.575 119.063 215.415 117.366 215.415 115.356V114.696H218.655V115.356Z" fill="white"/>
<path d="M194.175 71.5318H197.415V113.188H194.175V71.5318ZM215.415 71.5318H218.655V113.188H215.415V71.5318ZM218.655 115.356C218.655 118.12 217.495 120.414 215.175 122.236C212.855 124.058 209.935 124.969 206.415 124.969C202.895 124.969 199.975 124.058 197.655 122.236C195.335 120.414 194.175 118.12 194.175 115.356V114.696H197.415V115.356C197.415 117.366 198.215 119.063 199.815 120.445C201.495 121.827 203.695 122.518 206.415 122.518C209.135 122.518 211.295 121.827 212.895 120.445C214.575 119.063 215.415 117.366 215.415 115.356V114.696H218.655V115.356Z" fill="url(#paint4_radial_110_2227)"/>
<path d="M169.337 71.5318H172.577V120.162H169.337V71.5318ZM169.337 121.67H190.577V124.121H169.337V121.67Z" fill="white"/>
<path d="M169.337 71.5318H172.577V120.162H169.337V71.5318ZM169.337 121.67H190.577V124.121H169.337V121.67Z" fill="url(#paint5_radial_110_2227)"/>
<path d="M161.233 80.9559H157.993V80.2962C157.993 78.2857 157.153 76.5892 155.473 75.207C153.873 73.8247 151.713 73.1336 148.993 73.1336C146.273 73.1336 144.073 73.8247 142.393 75.207C140.793 76.5892 139.993 78.2857 139.993 80.2962V80.9559H136.753V80.2962C136.753 77.5317 137.913 75.2384 140.233 73.4163C142.553 71.5943 145.473 70.6832 148.993 70.6832C152.513 70.6832 155.433 71.5943 157.753 73.4163C160.073 75.2384 161.233 77.5317 161.233 80.2962V80.9559ZM136.753 82.4639H139.993V113.188H136.753V82.4639ZM157.993 82.4639H161.233V113.188H157.993V82.4639ZM161.233 115.355C161.233 118.12 160.073 120.413 157.753 122.235C155.433 124.057 152.513 124.968 148.993 124.968C145.473 124.968 142.553 124.057 140.233 122.235C137.913 120.413 136.753 118.12 136.753 115.355V114.696H139.993V115.355C139.993 117.366 140.793 119.062 142.393 120.445C144.073 121.827 146.273 122.518 148.993 122.518C151.713 122.518 153.873 121.827 155.473 120.445C157.153 119.062 157.993 117.366 157.993 115.355V114.696H161.233V115.355Z" fill="white"/>
<path d="M161.233 80.9559H157.993V80.2962C157.993 78.2857 157.153 76.5892 155.473 75.207C153.873 73.8247 151.713 73.1336 148.993 73.1336C146.273 73.1336 144.073 73.8247 142.393 75.207C140.793 76.5892 139.993 78.2857 139.993 80.2962V80.9559H136.753V80.2962C136.753 77.5317 137.913 75.2384 140.233 73.4163C142.553 71.5943 145.473 70.6832 148.993 70.6832C152.513 70.6832 155.433 71.5943 157.753 73.4163C160.073 75.2384 161.233 77.5317 161.233 80.2962V80.9559ZM136.753 82.4639H139.993V113.188H136.753V82.4639ZM157.993 82.4639H161.233V113.188H157.993V82.4639ZM161.233 115.355C161.233 118.12 160.073 120.413 157.753 122.235C155.433 124.057 152.513 124.968 148.993 124.968C145.473 124.968 142.553 124.057 140.233 122.235C137.913 120.413 136.753 118.12 136.753 115.355V114.696H139.993V115.355C139.993 117.366 140.793 119.062 142.393 120.445C144.073 121.827 146.273 122.518 148.993 122.518C151.713 122.518 153.873 121.827 155.473 120.445C157.153 119.062 157.993 117.366 157.993 115.355V114.696H161.233V115.355Z" fill="url(#paint6_radial_110_2227)"/>
<path d="M117.168 124.12L114.048 124.497L106.128 71.5313L109.248 71.1543L117.168 124.12ZM119.448 124.12L127.368 71.1543L130.488 71.5313L122.568 124.497L119.448 124.12Z" fill="white"/>
<path d="M117.168 124.12L114.048 124.497L106.128 71.5313L109.248 71.1543L117.168 124.12ZM119.448 124.12L127.368 71.1543L130.488 71.5313L122.568 124.497L119.448 124.12Z" fill="url(#paint7_radial_110_2227)"/>
<path d="M78.165 71.5318H81.405V124.121H78.165V71.5318ZM83.205 71.5318H100.605V73.9822H83.205V71.5318ZM83.205 107.251H100.605V109.701H83.205V107.251ZM83.205 121.67H100.605V124.121H83.205V121.67Z" fill="white"/>
<path d="M78.165 71.5318H81.405V124.121H78.165V71.5318ZM83.205 71.5318H100.605V73.9822H83.205V71.5318ZM83.205 107.251H100.605V109.701H83.205V107.251ZM83.205 121.67H100.605V124.121H83.205V121.67Z" fill="url(#paint8_radial_110_2227)"/>
<path d="M53.3035 80.9559H50.0635V80.2962C50.0635 78.2857 49.2235 76.5892 47.5435 75.207C45.9435 73.8247 43.7835 73.1336 41.0635 73.1336C38.3435 73.1336 36.1435 73.8247 34.4635 75.207C32.8635 76.5892 32.0635 78.2857 32.0635 80.2962V80.9559H28.8235V80.2962C28.8235 77.5317 29.9835 75.2384 32.3035 73.4163C34.6235 71.5943 37.5435 70.6832 41.0635 70.6832C44.5835 70.6832 47.5035 71.5943 49.8235 73.4163C52.1435 75.2384 53.3035 77.5317 53.3035 80.2962V80.9559ZM28.8235 82.4639H32.0635V113.188H28.8235V82.4639ZM50.0635 82.4639H53.3035V113.188H50.0635V82.4639ZM53.3035 115.355C53.3035 118.12 52.1435 120.413 49.8235 122.235C47.5035 124.057 44.5835 124.968 41.0635 124.968C37.5435 124.968 34.6235 124.057 32.3035 122.235C29.9835 120.413 28.8235 118.12 28.8235 115.355V114.696H32.0635V115.355C32.0635 117.366 32.8635 119.062 34.4635 120.445C36.1435 121.827 38.3435 122.518 41.0635 122.518C43.7835 122.518 45.9435 121.827 47.5435 120.445C49.2235 119.062 50.0635 117.366 50.0635 115.355V114.696H53.3035V115.355Z" fill="white"/>
<path d="M53.3035 80.9559H50.0635V80.2962C50.0635 78.2857 49.2235 76.5892 47.5435 75.207C45.9435 73.8247 43.7835 73.1336 41.0635 73.1336C38.3435 73.1336 36.1435 73.8247 34.4635 75.207C32.8635 76.5892 32.0635 78.2857 32.0635 80.2962V80.9559H28.8235V80.2962C28.8235 77.5317 29.9835 75.2384 32.3035 73.4163C34.6235 71.5943 37.5435 70.6832 41.0635 70.6832C44.5835 70.6832 47.5035 71.5943 49.8235 73.4163C52.1435 75.2384 53.3035 77.5317 53.3035 80.2962V80.9559ZM28.8235 82.4639H32.0635V113.188H28.8235V82.4639ZM50.0635 82.4639H53.3035V113.188H50.0635V82.4639ZM53.3035 115.355C53.3035 118.12 52.1435 120.413 49.8235 122.235C47.5035 124.057 44.5835 124.968 41.0635 124.968C37.5435 124.968 34.6235 124.057 32.3035 122.235C29.9835 120.413 28.8235 118.12 28.8235 115.355V114.696H32.0635V115.355C32.0635 117.366 32.8635 119.062 34.4635 120.445C36.1435 121.827 38.3435 122.518 41.0635 122.518C43.7835 122.518 45.9435 121.827 47.5435 120.445C49.2235 119.062 50.0635 117.366 50.0635 115.355V114.696H53.3035V115.355Z" fill="url(#paint9_radial_110_2227)"/>
<path d="M0 71.5318H25.68V73.9822H0V71.5318ZM11.28 75.4901H14.52V124.121H11.28V75.4901Z" fill="white"/>
<path d="M0 71.5318H25.68V73.9822H0V71.5318ZM11.28 75.4901H14.52V124.121H11.28V75.4901Z" fill="url(#paint10_radial_110_2227)"/>
</g>
<g clip-path="url(#clip1_110_2227)">
<path d="M231.037 0.942411L234.157 0.56543L245.437 53.3427L242.317 53.7196L231.037 0.942411ZM225.997 0.848167H229.237V53.4369H225.997V0.848167ZM247.237 0.848167H250.477V53.4369H247.237V0.848167Z" fill="white"/>
<path d="M231.037 0.942411L234.157 0.56543L245.437 53.3427L242.317 53.7196L231.037 0.942411ZM225.997 0.848167H229.237V53.4369H225.997V0.848167ZM247.237 0.848167H250.477V53.4369H247.237V0.848167Z" fill="url(#paint11_radial_110_2227)"/>
<path d="M201.063 0.848389H221.463V3.29876H201.063V0.848389ZM209.703 4.80668H212.943V49.4788H209.703V4.80668ZM201.063 50.9867H221.463V53.4371H201.063V50.9867Z" fill="white"/>
<path d="M201.063 0.848389H221.463V3.29876H201.063V0.848389ZM209.703 4.80668H212.943V49.4788H209.703V4.80668ZM201.063 50.9867H221.463V53.4371H201.063V50.9867Z" fill="url(#paint12_radial_110_2227)"/>
<path d="M181.214 10.2727H177.974V9.613C177.974 7.60244 177.134 5.90602 175.454 4.52376C173.854 3.1415 171.694 2.45037 168.974 2.45037C166.254 2.45037 164.054 3.1415 162.374 4.52376C160.774 5.90602 159.974 7.60244 159.974 9.613V10.2727H156.734V9.613C156.734 6.84848 157.894 4.55518 160.214 2.73311C162.534 0.911035 165.454 0 168.974 0C172.494 0 175.414 0.911035 177.734 2.73311C180.054 4.55518 181.214 6.84848 181.214 9.613V10.2727ZM156.734 11.7806H159.974V42.5045H156.734V11.7806ZM168.974 36.0959H181.214V38.5462H168.974V36.0959ZM177.974 39.9599H181.214V42.5045H177.974V39.9599ZM181.214 44.6722C181.214 47.4367 180.054 49.73 177.734 51.552C175.414 53.3741 172.494 54.2851 168.974 54.2851C165.454 54.2851 162.534 53.3741 160.214 51.552C157.894 49.73 156.734 47.4367 156.734 44.6722V44.0124H159.974V44.6722C159.974 46.6827 160.774 48.3791 162.374 49.7614C164.054 51.1436 166.254 51.8348 168.974 51.8348C171.694 51.8348 173.854 51.1436 175.454 49.7614C177.134 48.3791 177.974 46.6827 177.974 44.6722V44.0124H181.214V44.6722Z" fill="white"/>
<path d="M181.214 10.2727H177.974V9.613C177.974 7.60244 177.134 5.90602 175.454 4.52376C173.854 3.1415 171.694 2.45037 168.974 2.45037C166.254 2.45037 164.054 3.1415 162.374 4.52376C160.774 5.90602 159.974 7.60244 159.974 9.613V10.2727H156.734V9.613C156.734 6.84848 157.894 4.55518 160.214 2.73311C162.534 0.911035 165.454 0 168.974 0C172.494 0 175.414 0.911035 177.734 2.73311C180.054 4.55518 181.214 6.84848 181.214 9.613V10.2727ZM156.734 11.7806H159.974V42.5045H156.734V11.7806ZM168.974 36.0959H181.214V38.5462H168.974V36.0959ZM177.974 39.9599H181.214V42.5045H177.974V39.9599ZM181.214 44.6722C181.214 47.4367 180.054 49.73 177.734 51.552C175.414 53.3741 172.494 54.2851 168.974 54.2851C165.454 54.2851 162.534 53.3741 160.214 51.552C157.894 49.73 156.734 47.4367 156.734 44.6722V44.0124H159.974V44.6722C159.974 46.6827 160.774 48.3791 162.374 49.7614C164.054 51.1436 166.254 51.8348 168.974 51.8348C171.694 51.8348 173.854 51.1436 175.454 49.7614C177.134 48.3791 177.974 46.6827 177.974 44.6722V44.0124H181.214V44.6722Z" fill="url(#paint13_radial_110_2227)"/>
<path d="M124.39 0.848389H127.63V42.5047H124.39V0.848389ZM145.63 0.848389H148.87V42.5047H145.63V0.848389ZM148.87 44.6723C148.87 47.4369 147.71 49.7302 145.39 51.5522C143.07 53.3743 140.15 54.2853 136.63 54.2853C133.11 54.2853 130.19 53.3743 127.87 51.5522C125.55 49.7302 124.39 47.4369 124.39 44.6723V44.0126H127.63V44.6723C127.63 46.6829 128.43 48.3793 130.03 49.7616C131.71 51.1438 133.91 51.835 136.63 51.835C139.35 51.835 141.51 51.1438 143.11 49.7616C144.79 48.3793 145.63 46.6829 145.63 44.6723V44.0126H148.87V44.6723Z" fill="white"/>
<path d="M124.39 0.848389H127.63V42.5047H124.39V0.848389ZM145.63 0.848389H148.87V42.5047H145.63V0.848389ZM148.87 44.6723C148.87 47.4369 147.71 49.7302 145.39 51.5522C143.07 53.3743 140.15 54.2853 136.63 54.2853C133.11 54.2853 130.19 53.3743 127.87 51.5522C125.55 49.7302 124.39 47.4369 124.39 44.6723V44.0126H127.63V44.6723C127.63 46.6829 128.43 48.3793 130.03 49.7616C131.71 51.1438 133.91 51.835 136.63 51.835C139.35 51.835 141.51 51.1438 143.11 49.7616C144.79 48.3793 145.63 46.6829 145.63 44.6723V44.0126H148.87V44.6723Z" fill="url(#paint14_radial_110_2227)"/>
<path d="M99.5518 0.848389H102.792V49.4788H99.5518V0.848389ZM99.5518 50.9867H120.792V53.4371H99.5518V50.9867Z" fill="white"/>
<path d="M99.5518 0.848389H102.792V49.4788H99.5518V0.848389ZM99.5518 50.9867H120.792V53.4371H99.5518V50.9867Z" fill="url(#paint15_radial_110_2227)"/>
<path d="M69.7861 53.4371V0.848389H73.0261V53.4371H69.7861ZM74.8261 3.29876V0.848389H81.1861V3.29876H74.8261ZM82.9861 18.0952V15.6449H83.3461C85.6661 15.6449 87.5061 15.1108 88.8661 14.0427C90.2261 12.9118 90.9061 11.4038 90.9061 9.51893V9.33044C90.9061 7.50837 90.2261 6.06328 88.8661 4.99517C87.5061 3.86423 85.6661 3.29876 83.3461 3.29876H82.9861V0.848389H83.4661C86.6661 0.848389 89.2661 1.63376 91.2661 3.20451C93.2661 4.77526 94.2661 6.81724 94.2661 9.33044V9.51893C94.2661 12.095 93.2661 14.1684 91.2661 15.7391C89.2661 17.3099 86.6661 18.0952 83.4661 18.0952H82.9861ZM74.8261 18.0952V15.6449H81.1861V18.0952H74.8261Z" fill="white"/>
<path d="M69.7861 53.4371V0.848389H73.0261V53.4371H69.7861ZM74.8261 3.29876V0.848389H81.1861V3.29876H74.8261ZM82.9861 18.0952V15.6449H83.3461C85.6661 15.6449 87.5061 15.1108 88.8661 14.0427C90.2261 12.9118 90.9061 11.4038 90.9061 9.51893V9.33044C90.9061 7.50837 90.2261 6.06328 88.8661 4.99517C87.5061 3.86423 85.6661 3.29876 83.3461 3.29876H82.9861V0.848389H83.4661C86.6661 0.848389 89.2661 1.63376 91.2661 3.20451C93.2661 4.77526 94.2661 6.81724 94.2661 9.33044V9.51893C94.2661 12.095 93.2661 14.1684 91.2661 15.7391C89.2661 17.3099 86.6661 18.0952 83.4661 18.0952H82.9861ZM74.8261 18.0952V15.6449H81.1861V18.0952H74.8261Z" fill="url(#paint16_radial_110_2227)"/>
</g>
<defs>
<radialGradient id="paint0_radial_110_2227" cx="0" cy="0" r="1" gradientUnits="userSpaceOnUse" gradientTransform="translate(170.286 120.142) rotate(-90) scale(84.2122 154.946)">
<stop stop-color="#FFD683"/>
<stop offset="1" stop-color="#EE813D"/>
</radialGradient>
<radialGradient id="paint1_radial_110_2227" cx="0" cy="0" r="1" gradientUnits="userSpaceOnUse" gradientTransform="translate(170.286 120.142) rotate(-90) scale(84.2122 154.946)">
<stop stop-color="#FFD683"/>
<stop offset="1" stop-color="#EE813D"/>
</radialGradient>
<radialGradient id="paint2_radial_110_2227" cx="0" cy="0" r="1" gradientUnits="userSpaceOnUse" gradientTransform="translate(170.286 120.142) rotate(-90) scale(84.2122 154.946)">
<stop stop-color="#FFD683"/>
<stop offset="1" stop-color="#EE813D"/>
</radialGradient>
<radialGradient id="paint3_radial_110_2227" cx="0" cy="0" r="1" gradientUnits="userSpaceOnUse" gradientTransform="translate(170.286 120.142) rotate(-90) scale(84.2122 154.946)">
<stop stop-color="#FFD683"/>
<stop offset="1" stop-color="#EE813D"/>
</radialGradient>
<radialGradient id="paint4_radial_110_2227" cx="0" cy="0" r="1" gradientUnits="userSpaceOnUse" gradientTransform="translate(170.286 120.142) rotate(-90) scale(84.2122 154.946)">
<stop stop-color="#FFD683"/>
<stop offset="1" stop-color="#EE813D"/>
</radialGradient>
<radialGradient id="paint5_radial_110_2227" cx="0" cy="0" r="1" gradientUnits="userSpaceOnUse" gradientTransform="translate(170.286 120.142) rotate(-90) scale(84.2122 154.946)">
<stop stop-color="#FFD683"/>
<stop offset="1" stop-color="#EE813D"/>
</radialGradient>
<radialGradient id="paint6_radial_110_2227" cx="0" cy="0" r="1" gradientUnits="userSpaceOnUse" gradientTransform="translate(170.286 120.142) rotate(-90) scale(84.2122 154.946)">
<stop stop-color="#FFD683"/>
<stop offset="1" stop-color="#EE813D"/>
</radialGradient>
<radialGradient id="paint7_radial_110_2227" cx="0" cy="0" r="1" gradientUnits="userSpaceOnUse" gradientTransform="translate(170.286 120.142) rotate(-90) scale(84.2122 154.946)">
<stop stop-color="#FFD683"/>
<stop offset="1" stop-color="#EE813D"/>
</radialGradient>
<radialGradient id="paint8_radial_110_2227" cx="0" cy="0" r="1" gradientUnits="userSpaceOnUse" gradientTransform="translate(170.286 120.142) rotate(-90) scale(84.2122 154.946)">
<stop stop-color="#FFD683"/>
<stop offset="1" stop-color="#EE813D"/>
</radialGradient>
<radialGradient id="paint9_radial_110_2227" cx="0" cy="0" r="1" gradientUnits="userSpaceOnUse" gradientTransform="translate(170.286 120.142) rotate(-90) scale(84.2122 154.946)">
<stop stop-color="#FFD683"/>
<stop offset="1" stop-color="#EE813D"/>
</radialGradient>
<radialGradient id="paint10_radial_110_2227" cx="0" cy="0" r="1" gradientUnits="userSpaceOnUse" gradientTransform="translate(170.286 120.142) rotate(-90) scale(84.2122 154.946)">
<stop stop-color="#FFD683"/>
<stop offset="1" stop-color="#EE813D"/>
</radialGradient>
<radialGradient id="paint11_radial_110_2227" cx="0" cy="0" r="1" gradientTransform="matrix(0 -78.6466 83.9811 82.8545 165.168 54.2853)" gradientUnits="userSpaceOnUse">
<stop stop-color="#FFD683"/>
<stop offset="1" stop-color="#EE813D"/>
</radialGradient>
<radialGradient id="paint12_radial_110_2227" cx="0" cy="0" r="1" gradientTransform="matrix(0 -78.6466 83.9811 82.8545 165.168 54.2853)" gradientUnits="userSpaceOnUse">
<stop stop-color="#FFD683"/>
<stop offset="1" stop-color="#EE813D"/>
</radialGradient>
<radialGradient id="paint13_radial_110_2227" cx="0" cy="0" r="1" gradientTransform="matrix(0 -78.6466 83.9811 82.8545 165.168 54.2853)" gradientUnits="userSpaceOnUse">
<stop stop-color="#FFD683"/>
<stop offset="1" stop-color="#EE813D"/>
</radialGradient>
<radialGradient id="paint14_radial_110_2227" cx="0" cy="0" r="1" gradientTransform="matrix(0 -78.6466 83.9811 82.8545 165.168 54.2853)" gradientUnits="userSpaceOnUse">
<stop stop-color="#FFD683"/>
<stop offset="1" stop-color="#EE813D"/>
</radialGradient>
<radialGradient id="paint15_radial_110_2227" cx="0" cy="0" r="1" gradientTransform="matrix(0 -78.6466 83.9811 82.8545 165.168 54.2853)" gradientUnits="userSpaceOnUse">
<stop stop-color="#FFD683"/>
<stop offset="1" stop-color="#EE813D"/>
</radialGradient>
<radialGradient id="paint16_radial_110_2227" cx="0" cy="0" r="1" gradientTransform="matrix(0 -78.6466 83.9811 82.8545 165.168 54.2853)" gradientUnits="userSpaceOnUse">
<stop stop-color="#FFD683"/>
<stop offset="1" stop-color="#EE813D"/>
</radialGradient>
<clipPath id="clip0_110_2227">
<rect width="331.981" height="54.2855" fill="white" transform="matrix(-1 0 0 1 331.981 70.6832)"/>
</clipPath>
<clipPath id="clip1_110_2227">
<rect width="180.691" height="54.2853" fill="white" transform="matrix(-1 0 0 1 250.477 0)"/>
</clipPath>
</defs>
</svg>
