<svg width="508" height="348" viewBox="0 0 508 348" fill="none" xmlns="http://www.w3.org/2000/svg">
<mask id="mask0_10_65" style="mask-type:alpha" maskUnits="userSpaceOnUse" x="0" y="259" width="508" height="56">
<rect y="259.065" width="507.591" height="55.4745" fill="url(#paint0_linear_10_65)"/>
</mask>
<g mask="url(#mask0_10_65)">
<g filter="url(#filter0_f_10_65)">
<path d="M469.869 293.738C469.869 300.478 370.286 312.876 244.365 312.876C118.444 312.876 16.6422 300.478 16.6422 293.738C16.6422 290.409 118.444 288.468 244.365 288.468C370.286 288.468 469.869 290.132 469.869 293.738Z" fill="url(#paint1_linear_10_65)"/>
</g>
</g>
<g filter="url(#filter1_f_10_65)">
<ellipse cx="254.504" cy="170.073" rx="126.048" ry="126.248" fill="url(#paint2_linear_10_65)"/>
</g>
<rect x="96.4015" width="308.993" height="195.27" fill="url(#paint3_linear_10_65)"/>
<foreignObject x="57.3807" y="147.374" width="394.246" height="35.881"><div xmlns="http://www.w3.org/1999/xhtml" style="backdrop-filter:blur(4.81px);clip-path:url(#bgblur_0_10_65_clip_path);height:100%;width:100%"></div></foreignObject><g opacity="0.2" filter="url(#filter2_f_10_65)" data-figma-bg-blur-radius="9.61933">
<path d="M442.007 159.721C442.007 164.091 358.059 173.635 254.504 173.635C150.948 173.635 67 164.091 67 159.721C67 156.993 150.948 156.993 254.504 156.993C358.059 156.993 442.007 156.993 442.007 159.721Z" fill="url(#paint4_radial_10_65)"/>
</g>
<foreignObject x="73.4681" y="176.22" width="362.626" height="35.881"><div xmlns="http://www.w3.org/1999/xhtml" style="backdrop-filter:blur(4.81px);clip-path:url(#bgblur_1_10_65_clip_path);height:100%;width:100%"></div></foreignObject><g filter="url(#filter3_f_10_65)" data-figma-bg-blur-radius="9.61933">
<path d="M426.474 188.568C426.474 192.938 349.605 202.482 254.781 202.482C159.957 202.482 83.0874 192.938 83.0874 188.568C83.0874 185.84 159.957 185.84 254.781 185.84C349.605 185.84 426.474 185.84 426.474 188.568Z" fill="url(#paint5_radial_10_65)"/>
</g>
<foreignObject x="94.5485" y="212.279" width="320.465" height="35.881"><div xmlns="http://www.w3.org/1999/xhtml" style="backdrop-filter:blur(4.81px);clip-path:url(#bgblur_2_10_65_clip_path);height:100%;width:100%"></div></foreignObject><g filter="url(#filter4_f_10_65)" data-figma-bg-blur-radius="9.61933">
<path d="M405.394 224.626C405.394 228.996 337.962 238.54 254.781 238.54C171.6 238.54 104.168 228.996 104.168 224.626C104.168 221.898 171.6 221.898 254.781 221.898C337.962 221.898 405.394 221.898 405.394 224.626Z" fill="url(#paint6_radial_10_65)"/>
</g>
<foreignObject x="25.2055" y="84.1325" width="459.151" height="30.3336"><div xmlns="http://www.w3.org/1999/xhtml" style="backdrop-filter:blur(4.81px);clip-path:url(#bgblur_3_10_65_clip_path);height:100%;width:100%"></div></foreignObject><g opacity="0.6" filter="url(#filter5_f_10_65)" data-figma-bg-blur-radius="9.61933">
<path d="M34.8249 103.028C34.8249 100.115 133.303 93.7518 254.781 93.7518C376.26 93.7518 474.737 100.115 474.737 103.028C474.737 104.847 376.26 104.847 254.781 104.847C133.303 104.847 34.8249 104.847 34.8249 103.028Z" fill="url(#paint7_radial_10_65)"/>
</g>
<foreignObject x="25.2055" y="113.533" width="459.151" height="30.3336"><div xmlns="http://www.w3.org/1999/xhtml" style="backdrop-filter:blur(4.81px);clip-path:url(#bgblur_4_10_65_clip_path);height:100%;width:100%"></div></foreignObject><g opacity="0.4" filter="url(#filter6_f_10_65)" data-figma-bg-blur-radius="9.61933">
<path d="M34.8249 132.429C34.8249 129.516 133.303 123.153 254.781 123.153C376.26 123.153 474.737 129.516 474.737 132.429C474.737 134.248 376.26 134.248 254.781 134.248C133.303 134.248 34.8249 134.248 34.8249 132.429Z" fill="url(#paint8_radial_10_65)"/>
</g>
<foreignObject x="115.074" y="242.234" width="278.859" height="35.881"><div xmlns="http://www.w3.org/1999/xhtml" style="backdrop-filter:blur(4.81px);clip-path:url(#bgblur_5_10_65_clip_path);height:100%;width:100%"></div></foreignObject><g filter="url(#filter7_f_10_65)" data-figma-bg-blur-radius="9.61933">
<path d="M384.314 254.582C384.314 258.952 326.196 268.496 254.504 268.496C182.812 268.496 124.693 258.952 124.693 254.582C124.693 251.854 182.812 251.854 254.504 251.854C326.196 251.854 384.314 251.854 384.314 254.582Z" fill="url(#paint9_radial_10_65)"/>
</g>
<foreignObject x="55.1611" y="61.9425" width="398.684" height="30.3335"><div xmlns="http://www.w3.org/1999/xhtml" style="backdrop-filter:blur(4.81px);clip-path:url(#bgblur_6_10_65_clip_path);height:100%;width:100%"></div></foreignObject><g opacity="0.8" filter="url(#filter8_f_10_65)" data-figma-bg-blur-radius="9.61933">
<path d="M64.7803 80.8379C64.7803 77.9248 149.722 71.5619 254.503 71.5619C359.284 71.5619 444.226 77.9248 444.226 80.8379C444.226 82.6568 359.284 82.6567 254.503 82.6567C149.722 82.6567 64.7803 82.6567 64.7803 80.8379Z" fill="url(#paint10_radial_10_65)"/>
</g>
<foreignObject x="136.154" y="272.468" width="236.698" height="36.1583"><div xmlns="http://www.w3.org/1999/xhtml" style="backdrop-filter:blur(4.81px);clip-path:url(#bgblur_7_10_65_clip_path);height:100%;width:100%"></div></foreignObject><g filter="url(#filter9_f_10_65)" data-figma-bg-blur-radius="9.61933">
<path d="M363.233 284.861C363.233 289.304 314.553 299.007 254.503 299.007C194.453 299.007 145.773 289.304 145.773 284.861C145.773 282.087 194.453 282.087 254.503 282.087C314.553 282.087 363.233 282.087 363.233 284.861Z" fill="url(#paint11_radial_10_65)"/>
</g>
<foreignObject x="136.154" y="274.965" width="236.698" height="37.5452"><div xmlns="http://www.w3.org/1999/xhtml" style="backdrop-filter:blur(4.81px);clip-path:url(#bgblur_8_10_65_clip_path);height:100%;width:100%"></div></foreignObject><g filter="url(#filter10_f_10_65)" data-figma-bg-blur-radius="9.61933">
<path d="M145.774 299.89C145.774 295.083 194.454 284.584 254.504 284.584C314.554 284.584 363.234 295.083 363.234 299.89C363.234 302.891 314.554 302.891 254.504 302.891C194.454 302.891 145.774 302.891 145.774 299.89Z" fill="url(#paint12_radial_10_65)"/>
</g>
<foreignObject x="173.877" y="298.818" width="161.253" height="30.8883"><div xmlns="http://www.w3.org/1999/xhtml" style="backdrop-filter:blur(4.81px);clip-path:url(#bgblur_9_10_65_clip_path);height:100%;width:100%"></div></foreignObject><g opacity="0.3" filter="url(#filter11_f_10_65)" data-figma-bg-blur-radius="9.61933">
<path d="M325.511 310.347C325.511 313.406 293.72 320.087 254.503 320.087C215.287 320.087 183.496 313.406 183.496 310.347C183.496 308.438 215.287 308.438 254.503 308.438C293.72 308.438 325.511 308.438 325.511 310.347Z" fill="url(#paint13_radial_10_65)"/>
</g>
<foreignObject x="199.95" y="326.001" width="109.107" height="29.2241"><div xmlns="http://www.w3.org/1999/xhtml" style="backdrop-filter:blur(4.81px);clip-path:url(#bgblur_10_10_65_clip_path);height:100%;width:100%"></div></foreignObject><g opacity="0.2" filter="url(#filter12_f_10_65)" data-figma-bg-blur-radius="9.61933">
<path d="M299.437 337.257C299.437 339.879 279.32 345.605 254.503 345.605C229.687 345.605 209.569 339.879 209.569 337.257C209.569 335.62 229.687 335.62 254.503 335.62C279.32 335.62 299.437 335.62 299.437 337.257Z" fill="url(#paint14_radial_10_65)"/>
</g>
<foreignObject x="86.2272" y="40.3079" width="336.552" height="30.3335"><div xmlns="http://www.w3.org/1999/xhtml" style="backdrop-filter:blur(4.81px);clip-path:url(#bgblur_11_10_65_clip_path);height:100%;width:100%"></div></foreignObject><g filter="url(#filter13_f_10_65)" data-figma-bg-blur-radius="9.61933">
<path d="M95.8465 59.2033C95.8465 56.2902 166.88 49.9273 254.503 49.9273C342.127 49.9273 413.16 56.2902 413.16 59.2033C413.16 61.0221 342.127 61.0221 254.503 61.0221C166.88 61.0221 95.8465 61.0221 95.8465 59.2033Z" fill="url(#paint15_radial_10_65)"/>
</g>
<g opacity="0.8" filter="url(#filter14_f_10_65)">
<ellipse cx="267.817" cy="160.321" rx="82.6569" ry="83.2117" fill="url(#paint16_radial_10_65)"/>
</g>
<defs>
<filter id="filter0_f_10_65" x="8.32104" y="280.146" width="469.869" height="41.0511" filterUnits="userSpaceOnUse" color-interpolation-filters="sRGB">
<feFlood flood-opacity="0" result="BackgroundImageFix"/>
<feBlend mode="normal" in="SourceGraphic" in2="BackgroundImageFix" result="shape"/>
<feGaussianBlur stdDeviation="4.16058" result="effect1_foregroundBlur_10_65"/>
</filter>
<filter id="filter1_f_10_65" x="111.814" y="27.1823" width="285.38" height="285.781" filterUnits="userSpaceOnUse" color-interpolation-filters="sRGB">
<feFlood flood-opacity="0" result="BackgroundImageFix"/>
<feBlend mode="normal" in="SourceGraphic" in2="BackgroundImageFix" result="shape"/>
<feGaussianBlur stdDeviation="8.32117" result="effect1_foregroundBlur_10_65"/>
</filter>
<filter id="filter2_f_10_65" x="57.3807" y="147.374" width="394.246" height="35.881" filterUnits="userSpaceOnUse" color-interpolation-filters="sRGB">
<feFlood flood-opacity="0" result="BackgroundImageFix"/>
<feBlend mode="normal" in="SourceGraphic" in2="BackgroundImageFix" result="shape"/>
<feGaussianBlur stdDeviation="0.96969" result="effect1_foregroundBlur_10_65"/>
</filter>
<clipPath id="bgblur_0_10_65_clip_path" transform="translate(-57.3807 -147.374)"><path d="M442.007 159.721C442.007 164.091 358.059 173.635 254.504 173.635C150.948 173.635 67 164.091 67 159.721C67 156.993 150.948 156.993 254.504 156.993C358.059 156.993 442.007 156.993 442.007 159.721Z"/>
</clipPath><filter id="filter3_f_10_65" x="73.4681" y="176.22" width="362.626" height="35.881" filterUnits="userSpaceOnUse" color-interpolation-filters="sRGB">
<feFlood flood-opacity="0" result="BackgroundImageFix"/>
<feBlend mode="normal" in="SourceGraphic" in2="BackgroundImageFix" result="shape"/>
<feGaussianBlur stdDeviation="0.96969" result="effect1_foregroundBlur_10_65"/>
</filter>
<clipPath id="bgblur_1_10_65_clip_path" transform="translate(-73.4681 -176.22)"><path d="M426.474 188.568C426.474 192.938 349.605 202.482 254.781 202.482C159.957 202.482 83.0874 192.938 83.0874 188.568C83.0874 185.84 159.957 185.84 254.781 185.84C349.605 185.84 426.474 185.84 426.474 188.568Z"/>
</clipPath><filter id="filter4_f_10_65" x="94.5485" y="212.279" width="320.465" height="35.881" filterUnits="userSpaceOnUse" color-interpolation-filters="sRGB">
<feFlood flood-opacity="0" result="BackgroundImageFix"/>
<feBlend mode="normal" in="SourceGraphic" in2="BackgroundImageFix" result="shape"/>
<feGaussianBlur stdDeviation="0.96969" result="effect1_foregroundBlur_10_65"/>
</filter>
<clipPath id="bgblur_2_10_65_clip_path" transform="translate(-94.5485 -212.279)"><path d="M405.394 224.626C405.394 228.996 337.962 238.54 254.781 238.54C171.6 238.54 104.168 228.996 104.168 224.626C104.168 221.898 171.6 221.898 254.781 221.898C337.962 221.898 405.394 221.898 405.394 224.626Z"/>
</clipPath><filter id="filter5_f_10_65" x="25.2055" y="84.1325" width="459.151" height="30.3336" filterUnits="userSpaceOnUse" color-interpolation-filters="sRGB">
<feFlood flood-opacity="0" result="BackgroundImageFix"/>
<feBlend mode="normal" in="SourceGraphic" in2="BackgroundImageFix" result="shape"/>
<feGaussianBlur stdDeviation="0.96969" result="effect1_foregroundBlur_10_65"/>
</filter>
<clipPath id="bgblur_3_10_65_clip_path" transform="translate(-25.2055 -84.1325)"><path d="M34.8249 103.028C34.8249 100.115 133.303 93.7518 254.781 93.7518C376.26 93.7518 474.737 100.115 474.737 103.028C474.737 104.847 376.26 104.847 254.781 104.847C133.303 104.847 34.8249 104.847 34.8249 103.028Z"/>
</clipPath><filter id="filter6_f_10_65" x="25.2055" y="113.533" width="459.151" height="30.3336" filterUnits="userSpaceOnUse" color-interpolation-filters="sRGB">
<feFlood flood-opacity="0" result="BackgroundImageFix"/>
<feBlend mode="normal" in="SourceGraphic" in2="BackgroundImageFix" result="shape"/>
<feGaussianBlur stdDeviation="0.96969" result="effect1_foregroundBlur_10_65"/>
</filter>
<clipPath id="bgblur_4_10_65_clip_path" transform="translate(-25.2055 -113.533)"><path d="M34.8249 132.429C34.8249 129.516 133.303 123.153 254.781 123.153C376.26 123.153 474.737 129.516 474.737 132.429C474.737 134.248 376.26 134.248 254.781 134.248C133.303 134.248 34.8249 134.248 34.8249 132.429Z"/>
</clipPath><filter id="filter7_f_10_65" x="115.074" y="242.234" width="278.859" height="35.881" filterUnits="userSpaceOnUse" color-interpolation-filters="sRGB">
<feFlood flood-opacity="0" result="BackgroundImageFix"/>
<feBlend mode="normal" in="SourceGraphic" in2="BackgroundImageFix" result="shape"/>
<feGaussianBlur stdDeviation="0.96969" result="effect1_foregroundBlur_10_65"/>
</filter>
<clipPath id="bgblur_5_10_65_clip_path" transform="translate(-115.074 -242.234)"><path d="M384.314 254.582C384.314 258.952 326.196 268.496 254.504 268.496C182.812 268.496 124.693 258.952 124.693 254.582C124.693 251.854 182.812 251.854 254.504 251.854C326.196 251.854 384.314 251.854 384.314 254.582Z"/>
</clipPath><filter id="filter8_f_10_65" x="55.1611" y="61.9425" width="398.684" height="30.3335" filterUnits="userSpaceOnUse" color-interpolation-filters="sRGB">
<feFlood flood-opacity="0" result="BackgroundImageFix"/>
<feBlend mode="normal" in="SourceGraphic" in2="BackgroundImageFix" result="shape"/>
<feGaussianBlur stdDeviation="0.96969" result="effect1_foregroundBlur_10_65"/>
</filter>
<clipPath id="bgblur_6_10_65_clip_path" transform="translate(-55.1611 -61.9425)"><path d="M64.7803 80.8379C64.7803 77.9248 149.722 71.5619 254.503 71.5619C359.284 71.5619 444.226 77.9248 444.226 80.8379C444.226 82.6568 359.284 82.6567 254.503 82.6567C149.722 82.6567 64.7803 82.6567 64.7803 80.8379Z"/>
</clipPath><filter id="filter9_f_10_65" x="136.154" y="272.468" width="236.698" height="36.1583" filterUnits="userSpaceOnUse" color-interpolation-filters="sRGB">
<feFlood flood-opacity="0" result="BackgroundImageFix"/>
<feBlend mode="normal" in="SourceGraphic" in2="BackgroundImageFix" result="shape"/>
<feGaussianBlur stdDeviation="0.96969" result="effect1_foregroundBlur_10_65"/>
</filter>
<clipPath id="bgblur_7_10_65_clip_path" transform="translate(-136.154 -272.468)"><path d="M363.233 284.861C363.233 289.304 314.553 299.007 254.503 299.007C194.453 299.007 145.773 289.304 145.773 284.861C145.773 282.087 194.453 282.087 254.503 282.087C314.553 282.087 363.233 282.087 363.233 284.861Z"/>
</clipPath><filter id="filter10_f_10_65" x="136.154" y="274.965" width="236.698" height="37.5452" filterUnits="userSpaceOnUse" color-interpolation-filters="sRGB">
<feFlood flood-opacity="0" result="BackgroundImageFix"/>
<feBlend mode="normal" in="SourceGraphic" in2="BackgroundImageFix" result="shape"/>
<feGaussianBlur stdDeviation="0.96969" result="effect1_foregroundBlur_10_65"/>
</filter>
<clipPath id="bgblur_8_10_65_clip_path" transform="translate(-136.154 -274.965)"><path d="M145.774 299.89C145.774 295.083 194.454 284.584 254.504 284.584C314.554 284.584 363.234 295.083 363.234 299.89C363.234 302.891 314.554 302.891 254.504 302.891C194.454 302.891 145.774 302.891 145.774 299.89Z"/>
</clipPath><filter id="filter11_f_10_65" x="173.877" y="298.818" width="161.253" height="30.8883" filterUnits="userSpaceOnUse" color-interpolation-filters="sRGB">
<feFlood flood-opacity="0" result="BackgroundImageFix"/>
<feBlend mode="normal" in="SourceGraphic" in2="BackgroundImageFix" result="shape"/>
<feGaussianBlur stdDeviation="0.96969" result="effect1_foregroundBlur_10_65"/>
</filter>
<clipPath id="bgblur_9_10_65_clip_path" transform="translate(-173.877 -298.818)"><path d="M325.511 310.347C325.511 313.406 293.72 320.087 254.503 320.087C215.287 320.087 183.496 313.406 183.496 310.347C183.496 308.438 215.287 308.438 254.503 308.438C293.72 308.438 325.511 308.438 325.511 310.347Z"/>
</clipPath><filter id="filter12_f_10_65" x="199.95" y="326.001" width="109.107" height="29.2241" filterUnits="userSpaceOnUse" color-interpolation-filters="sRGB">
<feFlood flood-opacity="0" result="BackgroundImageFix"/>
<feBlend mode="normal" in="SourceGraphic" in2="BackgroundImageFix" result="shape"/>
<feGaussianBlur stdDeviation="0.96969" result="effect1_foregroundBlur_10_65"/>
</filter>
<clipPath id="bgblur_10_10_65_clip_path" transform="translate(-199.95 -326.001)"><path d="M299.437 337.257C299.437 339.879 279.32 345.605 254.503 345.605C229.687 345.605 209.569 339.879 209.569 337.257C209.569 335.62 229.687 335.62 254.503 335.62C279.32 335.62 299.437 335.62 299.437 337.257Z"/>
</clipPath><filter id="filter13_f_10_65" x="86.2272" y="40.3079" width="336.552" height="30.3335" filterUnits="userSpaceOnUse" color-interpolation-filters="sRGB">
<feFlood flood-opacity="0" result="BackgroundImageFix"/>
<feBlend mode="normal" in="SourceGraphic" in2="BackgroundImageFix" result="shape"/>
<feGaussianBlur stdDeviation="0.96969" result="effect1_foregroundBlur_10_65"/>
</filter>
<clipPath id="bgblur_11_10_65_clip_path" transform="translate(-86.2272 -40.3079)"><path d="M95.8465 59.2033C95.8465 56.2902 166.88 49.9273 254.503 49.9273C342.127 49.9273 413.16 56.2902 413.16 59.2033C413.16 61.0221 342.127 61.0221 254.503 61.0221C166.88 61.0221 95.8465 61.0221 95.8465 59.2033Z"/>
</clipPath><filter id="filter14_f_10_65" x="168.518" y="60.4672" width="198.599" height="199.708" filterUnits="userSpaceOnUse" color-interpolation-filters="sRGB">
<feFlood flood-opacity="0" result="BackgroundImageFix"/>
<feBlend mode="normal" in="SourceGraphic" in2="BackgroundImageFix" result="shape"/>
<feGaussianBlur stdDeviation="8.32117" result="effect1_foregroundBlur_10_65"/>
</filter>
<linearGradient id="paint0_linear_10_65" x1="252.686" y1="322.584" x2="254.073" y2="286.803" gradientUnits="userSpaceOnUse">
<stop stop-color="#D9D9D9" stop-opacity="0"/>
<stop offset="1" stop-color="#737373"/>
</linearGradient>
<linearGradient id="paint1_linear_10_65" x1="256.014" y1="312.876" x2="255.737" y2="267.387" gradientUnits="userSpaceOnUse">
<stop offset="0.235577" stop-color="#F6D65D" stop-opacity="0"/>
<stop offset="1" stop-color="#FC862E"/>
</linearGradient>
<linearGradient id="paint2_linear_10_65" x1="254.504" y1="43.8246" x2="254.504" y2="296.32" gradientUnits="userSpaceOnUse">
<stop offset="0.245192" stop-color="#FAD137"/>
<stop offset="0.839485" stop-color="#FC8A30"/>
</linearGradient>
<linearGradient id="paint3_linear_10_65" x1="250.898" y1="3.49178e-08" x2="251.268" y2="181.401" gradientUnits="userSpaceOnUse">
<stop offset="0.00629411" stop-color="#F6FAE5"/>
<stop offset="1" stop-color="#F6F9E4" stop-opacity="0"/>
</linearGradient>
<radialGradient id="paint4_radial_10_65" cx="0" cy="0" r="1" gradientUnits="userSpaceOnUse" gradientTransform="translate(254.504 162.45) rotate(90) scale(7.91194 187.504)">
<stop stop-color="#F6F9E4"/>
<stop offset="1" stop-color="#F6F9E4" stop-opacity="0"/>
</radialGradient>
<radialGradient id="paint5_radial_10_65" cx="0" cy="0" r="1" gradientUnits="userSpaceOnUse" gradientTransform="translate(254.781 194.161) rotate(90) scale(8.32117 171.693)">
<stop stop-color="#F7AD39"/>
<stop offset="1" stop-color="#F7AD39" stop-opacity="0"/>
</radialGradient>
<radialGradient id="paint6_radial_10_65" cx="0" cy="0" r="1" gradientUnits="userSpaceOnUse" gradientTransform="translate(254.781 227.355) rotate(90) scale(7.91194 150.613)">
<stop stop-color="#F99726"/>
<stop offset="1" stop-color="#F99726" stop-opacity="0"/>
</radialGradient>
<radialGradient id="paint7_radial_10_65" cx="0" cy="0" r="1" gradientUnits="userSpaceOnUse" gradientTransform="translate(254.781 101.209) rotate(-90) scale(5.27464 219.956)">
<stop stop-color="#F6F9E4"/>
<stop offset="1" stop-color="#F6F9E4" stop-opacity="0"/>
</radialGradient>
<radialGradient id="paint8_radial_10_65" cx="0" cy="0" r="1" gradientUnits="userSpaceOnUse" gradientTransform="translate(254.781 130.61) rotate(-90) scale(5.27464 219.956)">
<stop stop-color="#F6F9E4"/>
<stop offset="1" stop-color="#F6F9E4" stop-opacity="0"/>
</radialGradient>
<radialGradient id="paint9_radial_10_65" cx="0" cy="0" r="1" gradientUnits="userSpaceOnUse" gradientTransform="translate(254.504 257.31) rotate(90) scale(7.91194 129.81)">
<stop stop-color="#FC8A30"/>
<stop offset="1" stop-color="#FC8A30" stop-opacity="0"/>
</radialGradient>
<radialGradient id="paint10_radial_10_65" cx="0" cy="0" r="1" gradientUnits="userSpaceOnUse" gradientTransform="translate(254.503 79.0191) rotate(-90) scale(5.27462 189.723)">
<stop stop-color="#F6F9E4"/>
<stop offset="1" stop-color="#F6F9E4" stop-opacity="0"/>
</radialGradient>
<radialGradient id="paint11_radial_10_65" cx="0" cy="0" r="1" gradientUnits="userSpaceOnUse" gradientTransform="translate(254.503 287.635) rotate(90) scale(8.0438 108.73)">
<stop stop-color="#FC8A30"/>
<stop offset="1" stop-color="#FC8A30" stop-opacity="0"/>
</radialGradient>
<radialGradient id="paint12_radial_10_65" cx="0" cy="0" r="1" gradientUnits="userSpaceOnUse" gradientTransform="translate(254.504 296.889) rotate(-90) scale(8.70313 108.73)">
<stop stop-color="#F7DF76"/>
<stop offset="1" stop-color="#F7DF76" stop-opacity="0"/>
</radialGradient>
<radialGradient id="paint13_radial_10_65" cx="0" cy="0" r="1" gradientUnits="userSpaceOnUse" gradientTransform="translate(254.503 314.262) rotate(90) scale(5.82482 71.0073)">
<stop stop-color="#FC8A30"/>
<stop offset="1" stop-color="#FC8A30" stop-opacity="0"/>
</radialGradient>
<radialGradient id="paint14_radial_10_65" cx="0" cy="0" r="1" gradientUnits="userSpaceOnUse" gradientTransform="translate(254.503 340.613) rotate(90) scale(4.9927 44.9343)">
<stop stop-color="#FC8A30"/>
<stop offset="1" stop-color="#FC8A30" stop-opacity="0"/>
</radialGradient>
<radialGradient id="paint15_radial_10_65" cx="0" cy="0" r="1" gradientUnits="userSpaceOnUse" gradientTransform="translate(254.503 57.3845) rotate(-90) scale(5.27462 158.657)">
<stop stop-color="#F6F9E4"/>
<stop offset="1" stop-color="#F6F9E4" stop-opacity="0"/>
</radialGradient>
<radialGradient id="paint16_radial_10_65" cx="0" cy="0" r="1" gradientUnits="userSpaceOnUse" gradientTransform="translate(267.817 160.321) rotate(90) scale(83.2117 82.6569)">
<stop offset="0.245192" stop-color="#FFDD5C"/>
<stop offset="1" stop-color="#FAD137" stop-opacity="0"/>
</radialGradient>
</defs>
</svg>
