<svg width="509" height="468" viewBox="0 0 509 468" fill="none" xmlns="http://www.w3.org/2000/svg">
<g filter="url(#filter0_f_123_2207)" style="mix-blend-mode:plus-lighter">
<ellipse cx="254.103" cy="223.5" rx="169.5" ry="163.5" fill="url(#paint0_linear_123_2207)"/>
</g>
<g filter="url(#filter1_f_123_2207)">
<ellipse cx="254.252" cy="229.438" rx="169.169" ry="169.438" fill="url(#paint1_linear_123_2207)"/>
</g>
<g opacity="0.2" filter="url(#filter2_f_123_2207)">
<path d="M505.902 215.545C505.902 221.41 393.235 234.219 254.253 234.219C115.27 234.219 2.60286 221.41 2.60286 215.545C2.60286 211.884 115.27 211.884 254.253 211.884C393.235 211.884 505.902 211.884 505.902 215.545Z" fill="url(#paint2_radial_123_2207)"/>
</g>
<g filter="url(#filter3_f_123_2207)">
<path d="M485.056 254.26C485.056 260.125 381.888 272.934 254.625 272.934C127.362 272.934 24.1943 260.125 24.1943 254.26C24.1943 250.599 127.362 250.599 254.625 250.599C381.888 250.599 485.056 250.599 485.056 254.26Z" fill="url(#paint3_radial_123_2207)"/>
</g>
<g filter="url(#filter4_f_123_2207)">
<path d="M456.763 302.654C456.763 308.519 366.263 321.328 254.625 321.328C142.987 321.328 52.4859 308.519 52.4859 302.654C52.4859 298.992 142.987 298.992 254.625 298.992C366.263 298.992 456.763 298.992 456.763 302.654Z" fill="url(#paint4_radial_123_2207)"/>
</g>
<g filter="url(#filter5_f_123_2207)">
<path d="M428.472 342.859C428.472 348.723 350.471 361.533 254.253 361.533C158.034 361.533 80.0336 348.723 80.0336 342.859C80.0336 339.197 158.034 339.197 254.253 339.197C350.471 339.197 428.472 339.197 428.472 342.859Z" fill="url(#paint5_radial_123_2207)"/>
</g>
<g filter="url(#filter6_f_123_2207)">
<path d="M400.18 383.496C400.18 389.459 334.846 402.482 254.253 402.482C173.659 402.482 108.326 389.459 108.326 383.496C108.326 379.774 173.659 379.774 254.253 379.774C334.846 379.774 400.18 379.774 400.18 383.496Z" fill="url(#paint6_radial_123_2207)"/>
</g>
<g opacity="0.5" filter="url(#filter7_f_123_2207)">
<path d="M93.6033 397.902C93.6033 391.338 165.462 377 254.103 377C342.745 377 414.603 391.338 414.603 397.902C414.603 402 342.745 402 254.103 402C165.462 402 93.6033 402 93.6033 397.902Z" fill="url(#paint7_radial_123_2207)"/>
</g>
<g opacity="0.5" filter="url(#filter8_f_123_2207)">
<path d="M349.552 417.702C349.552 421.807 306.885 430.774 254.252 430.774C201.62 430.774 158.953 421.807 158.953 417.702C158.953 415.139 201.62 415.139 254.252 415.139C306.885 415.139 349.552 415.139 349.552 417.702Z" fill="url(#paint8_radial_123_2207)"/>
</g>
<g opacity="0.4" filter="url(#filter9_f_123_2207)">
<path d="M314.559 453.818C314.559 457.336 287.559 465.022 254.253 465.022C220.946 465.022 193.946 457.336 193.946 453.818C193.946 451.621 220.946 451.621 254.253 451.621C287.559 451.621 314.559 451.621 314.559 453.818Z" fill="url(#paint9_radial_123_2207)"/>
</g>
<g filter="url(#filter10_f_123_2207)">
<ellipse cx="261.103" cy="213" rx="136.5" ry="137" fill="url(#paint10_radial_123_2207)"/>
</g>
<defs>
<filter id="filter0_f_123_2207" x="24.6033" y="0" width="459" height="447" filterUnits="userSpaceOnUse" color-interpolation-filters="sRGB">
<feFlood flood-opacity="0" result="BackgroundImageFix"/>
<feBlend mode="normal" in="SourceGraphic" in2="BackgroundImageFix" result="shape"/>
<feGaussianBlur stdDeviation="30" result="effect1_foregroundBlur_123_2207"/>
</filter>
<filter id="filter1_f_123_2207" x="75.0833" y="50" width="358.338" height="358.876" filterUnits="userSpaceOnUse" color-interpolation-filters="sRGB">
<feFlood flood-opacity="0" result="BackgroundImageFix"/>
<feBlend mode="normal" in="SourceGraphic" in2="BackgroundImageFix" result="shape"/>
<feGaussianBlur stdDeviation="5" result="effect1_foregroundBlur_123_2207"/>
</filter>
<filter id="filter2_f_123_2207" x="6.4373e-06" y="209.281" width="508.505" height="27.5415" filterUnits="userSpaceOnUse" color-interpolation-filters="sRGB">
<feFlood flood-opacity="0" result="BackgroundImageFix"/>
<feBlend mode="normal" in="SourceGraphic" in2="BackgroundImageFix" result="shape"/>
<feGaussianBlur stdDeviation="1.30143" result="effect1_foregroundBlur_123_2207"/>
</filter>
<filter id="filter3_f_123_2207" x="21.5914" y="247.996" width="466.067" height="27.5415" filterUnits="userSpaceOnUse" color-interpolation-filters="sRGB">
<feFlood flood-opacity="0" result="BackgroundImageFix"/>
<feBlend mode="normal" in="SourceGraphic" in2="BackgroundImageFix" result="shape"/>
<feGaussianBlur stdDeviation="1.30143" result="effect1_foregroundBlur_123_2207"/>
</filter>
<filter id="filter4_f_123_2207" x="49.8831" y="296.389" width="409.483" height="27.5415" filterUnits="userSpaceOnUse" color-interpolation-filters="sRGB">
<feFlood flood-opacity="0" result="BackgroundImageFix"/>
<feBlend mode="normal" in="SourceGraphic" in2="BackgroundImageFix" result="shape"/>
<feGaussianBlur stdDeviation="1.30143" result="effect1_foregroundBlur_123_2207"/>
</filter>
<filter id="filter5_f_123_2207" x="77.4307" y="336.594" width="353.644" height="27.5415" filterUnits="userSpaceOnUse" color-interpolation-filters="sRGB">
<feFlood flood-opacity="0" result="BackgroundImageFix"/>
<feBlend mode="normal" in="SourceGraphic" in2="BackgroundImageFix" result="shape"/>
<feGaussianBlur stdDeviation="1.30143" result="effect1_foregroundBlur_123_2207"/>
</filter>
<filter id="filter6_f_123_2207" x="105.723" y="377.171" width="297.06" height="27.9137" filterUnits="userSpaceOnUse" color-interpolation-filters="sRGB">
<feFlood flood-opacity="0" result="BackgroundImageFix"/>
<feBlend mode="normal" in="SourceGraphic" in2="BackgroundImageFix" result="shape"/>
<feGaussianBlur stdDeviation="1.30143" result="effect1_foregroundBlur_123_2207"/>
</filter>
<filter id="filter7_f_123_2207" x="91.0005" y="374.397" width="326.206" height="30.2057" filterUnits="userSpaceOnUse" color-interpolation-filters="sRGB">
<feFlood flood-opacity="0" result="BackgroundImageFix"/>
<feBlend mode="normal" in="SourceGraphic" in2="BackgroundImageFix" result="shape"/>
<feGaussianBlur stdDeviation="1.30143" result="effect1_foregroundBlur_123_2207"/>
</filter>
<filter id="filter8_f_123_2207" x="156.35" y="412.536" width="195.804" height="20.8407" filterUnits="userSpaceOnUse" color-interpolation-filters="sRGB">
<feFlood flood-opacity="0" result="BackgroundImageFix"/>
<feBlend mode="normal" in="SourceGraphic" in2="BackgroundImageFix" result="shape"/>
<feGaussianBlur stdDeviation="1.30143" result="effect1_foregroundBlur_123_2207"/>
</filter>
<filter id="filter9_f_123_2207" x="191.343" y="449.018" width="125.819" height="18.6072" filterUnits="userSpaceOnUse" color-interpolation-filters="sRGB">
<feFlood flood-opacity="0" result="BackgroundImageFix"/>
<feBlend mode="normal" in="SourceGraphic" in2="BackgroundImageFix" result="shape"/>
<feGaussianBlur stdDeviation="1.30143" result="effect1_foregroundBlur_123_2207"/>
</filter>
<filter id="filter10_f_123_2207" x="102.268" y="53.6642" width="317.672" height="318.672" filterUnits="userSpaceOnUse" color-interpolation-filters="sRGB">
<feFlood flood-opacity="0" result="BackgroundImageFix"/>
<feBlend mode="normal" in="SourceGraphic" in2="BackgroundImageFix" result="shape"/>
<feGaussianBlur stdDeviation="11.1679" result="effect1_foregroundBlur_123_2207"/>
</filter>
<linearGradient id="paint0_linear_123_2207" x1="254.103" y1="60" x2="254.103" y2="387" gradientUnits="userSpaceOnUse">
<stop offset="0.245192" stop-color="#FAD137"/>
<stop offset="0.839485" stop-color="#FC8A30"/>
</linearGradient>
<linearGradient id="paint1_linear_123_2207" x1="254.252" y1="60" x2="254.252" y2="398.876" gradientUnits="userSpaceOnUse">
<stop offset="0.245192" stop-color="#FAD137"/>
<stop offset="0.839485" stop-color="#FC8A30"/>
<stop offset="1" stop-color="#FC5A1C"/>
</linearGradient>
<radialGradient id="paint2_radial_123_2207" cx="0" cy="0" r="1" gradientUnits="userSpaceOnUse" gradientTransform="translate(254.252 219.207) rotate(90) scale(10.6187 251.65)">
<stop stop-color="#F6F9E4"/>
<stop offset="1" stop-color="#F6F9E4" stop-opacity="0"/>
</radialGradient>
<radialGradient id="paint3_radial_123_2207" cx="0" cy="0" r="1" gradientUnits="userSpaceOnUse" gradientTransform="translate(254.625 261.767) rotate(90) scale(11.1679 230.431)">
<stop stop-color="#FCC33E"/>
<stop offset="1" stop-color="#FCC33E" stop-opacity="0"/>
</radialGradient>
<radialGradient id="paint4_radial_123_2207" cx="0" cy="0" r="1" gradientUnits="userSpaceOnUse" gradientTransform="translate(254.625 306.316) rotate(90) scale(10.6187 202.139)">
<stop stop-color="#FBAB33"/>
<stop offset="1" stop-color="#FBAB33" stop-opacity="0"/>
</radialGradient>
<radialGradient id="paint5_radial_123_2207" cx="0" cy="0" r="1" gradientUnits="userSpaceOnUse" gradientTransform="translate(254.253 346.521) rotate(90) scale(10.6187 174.219)">
<stop stop-color="#FBAB33"/>
<stop offset="1" stop-color="#FBAB33" stop-opacity="0"/>
</radialGradient>
<radialGradient id="paint6_radial_123_2207" cx="0" cy="0" r="1" gradientUnits="userSpaceOnUse" gradientTransform="translate(254.253 387.219) rotate(90) scale(10.7956 145.927)">
<stop stop-color="#FC8A30"/>
<stop offset="1" stop-color="#FC8A30" stop-opacity="0"/>
</radialGradient>
<radialGradient id="paint7_radial_123_2207" cx="0" cy="0" r="1" gradientUnits="userSpaceOnUse" gradientTransform="translate(254.103 393.803) rotate(-90) scale(11.8853 160.5)">
<stop stop-color="#F7DF76"/>
<stop offset="1" stop-color="#F7DF76" stop-opacity="0"/>
</radialGradient>
<radialGradient id="paint8_radial_123_2207" cx="0" cy="0" r="1" gradientUnits="userSpaceOnUse" gradientTransform="translate(254.252 422.956) rotate(90) scale(7.81752 95.2993)">
<stop stop-color="#FC8A30"/>
<stop offset="1" stop-color="#FC8A30" stop-opacity="0"/>
</radialGradient>
<radialGradient id="paint9_radial_123_2207" cx="0" cy="0" r="1" gradientUnits="userSpaceOnUse" gradientTransform="translate(254.253 458.321) rotate(90) scale(6.70073 60.3066)">
<stop stop-color="#B6441B"/>
<stop offset="1" stop-color="#D4551E" stop-opacity="0"/>
</radialGradient>
<radialGradient id="paint10_radial_123_2207" cx="0" cy="0" r="1" gradientUnits="userSpaceOnUse" gradientTransform="translate(261.103 213) rotate(90) scale(137 136.5)">
<stop offset="0.245192" stop-color="#FFDD5C"/>
<stop offset="0.839485" stop-color="#FAD137" stop-opacity="0"/>
</radialGradient>
</defs>
</svg>
