<svg width="745" height="661" viewBox="0 0 745 661" fill="none" xmlns="http://www.w3.org/2000/svg">
<path d="M0 427.383C0 409.814 14.3543 397.189 31.9208 397.189C41.3171 397.189 46.2751 390.884 46.2751 380.726C46.2751 374.794 49.3672 362.036 66.0673 362.036H184.421C187.886 362.036 190.605 364.756 190.605 368.222V390.004C190.605 393.47 187.886 396.19 184.421 396.19H61.2426C49.114 396.19 41.6903 404.108 41.6903 412.64C41.6903 417.839 43.5429 426.877 50.4735 433.796L170.679 559.464C184.407 573.942 190.592 582.487 190.592 595.591C190.592 613.161 176.251 625.785 158.684 625.785C149.288 625.785 144.33 632.09 144.33 642.248C144.33 648.194 141.238 660.938 124.538 660.938H6.53076C3.06546 660.938 0.34653 658.219 0.34653 654.753V632.97C0.34653 629.504 3.06546 626.785 6.53076 626.785H129.349C141.478 626.785 148.901 618.866 148.901 610.334C148.901 605.135 147.049 596.111 140.118 589.179L19.9255 463.51C6.18423 449.033 0 440.501 0 427.383Z" fill="url(#paint0_radial_182_2358)"/>
<path d="M275.038 660.845C254.633 660.845 238.106 644.315 238.106 623.905V368.168C238.106 364.769 240.865 361.996 244.264 361.996H270.547C273.945 361.996 276.704 364.756 276.704 368.168V614.36C276.704 621.172 282.209 626.678 289.02 626.678H397.177C409.292 626.678 419.701 616.72 419.821 606.415V368.168C419.821 364.769 422.58 361.996 425.979 361.996H452.262C455.661 361.996 458.42 364.756 458.42 368.168V595.471C458.42 613.041 444.092 625.625 426.525 625.691C417.102 625.718 412.144 631.93 412.144 642.182C412.144 648.047 409.012 660.845 392.259 660.845H275.038Z" fill="url(#paint1_radial_182_2358)"/>
<path d="M689.968 362.023C710.36 362.023 726.901 378.553 726.901 398.962V654.699C726.901 658.112 724.142 660.871 720.743 660.871H694.46C691.061 660.871 688.289 658.112 688.289 654.699V408.494C688.289 401.682 682.785 396.176 675.974 396.176H567.083C554.968 396.176 544.559 406.134 544.439 416.439V654.699C544.439 658.099 541.68 660.871 538.281 660.871H511.998C508.6 660.871 505.841 658.112 505.841 654.699V427.397C505.841 409.827 520.169 397.243 537.735 397.176C547.158 397.149 552.116 390.937 552.116 380.673C552.116 374.807 555.261 362.009 572.001 362.009H689.968V362.023Z" fill="url(#paint2_radial_182_2358)"/>
<path d="M98.7211 78.1048L121.339 1.79965H135.88L108.237 95.1548H89.0316L68.0266 23.5154L46.8482 95.1548H27.6425L0 1.79965H14.7142L37.332 77.9182L59.7631 1.79965H76.2766L98.7211 78.1048Z" fill="url(#paint3_radial_182_2358)"/>
<path d="M179.863 96.9545C154.726 96.9545 138.212 82.2373 138.212 49.0171C138.212 15.437 154.739 0 179.863 0C204.453 0 220.247 15.9836 220.247 41.2986V47.4041H153.473L153.3 51.5366V52.9764C153.3 75.0654 164.255 82.9572 180.049 82.9572C194.59 82.9572 203.027 75.7719 205.359 60.5215H220.26C218.274 83.3038 202.654 96.9545 179.863 96.9545ZM205.532 36.2596C203.373 21.9024 194.403 13.9973 180.049 13.9973C167.307 13.9973 157.618 19.7428 154.739 36.2596H205.532Z" fill="url(#paint4_radial_182_2358)"/>
<path d="M314.49 35.7264H341.052V15.2637H288.46V1.79965H339.08C350.569 1.79965 355.06 5.74555 355.06 17.7832V95.1681H342.852L341.052 85.1168C334.415 92.8353 323.819 96.9678 311.437 96.9678C290.432 96.9678 276.438 85.8366 276.438 66.4404C276.438 47.7507 290.792 35.7264 314.49 35.7264ZM313.597 82.9438C329.39 82.9438 341.066 74.5055 341.066 61.9346V46.4976H316.475C299.775 46.4976 291.339 53.1363 291.339 65.8938C291.339 76.6651 300.495 82.9438 313.597 82.9438Z" fill="url(#paint5_radial_182_2358)"/>
<path d="M369.774 17.7699C369.774 5.74555 374.439 1.78632 385.755 1.78632H431.523V15.437H383.782V95.1548H369.774V17.7699Z" fill="url(#paint6_radial_182_2358)"/>
<path d="M477.479 96.9545C452.342 96.9545 435.828 82.2373 435.828 49.0171C435.842 15.437 452.355 0 477.479 0C502.069 0 517.863 15.9836 517.863 41.2986V47.4041H451.089L450.916 51.5366V52.9764C450.916 75.0654 461.872 82.9572 477.665 82.9572C492.206 82.9572 500.643 75.7719 502.975 60.5215H517.876C515.89 83.3038 500.283 96.9545 477.479 96.9545ZM503.149 36.2596C500.989 21.9024 492.02 13.9973 477.665 13.9973C464.924 13.9973 455.234 19.7428 452.355 36.2596H503.149Z" fill="url(#paint7_radial_182_2358)"/>
<path d="M0 300.488V190.19H16.5402V206.306C25.6566 193.789 39.2379 188.07 53.8588 188.07C71.8784 188.07 83.3405 195.495 88.4318 210.759C96.2821 195.695 109.85 188.07 128.723 188.07C153.953 188.07 166.468 202.281 166.468 230.488V300.488H150.141V240.247C150.141 214.158 143.57 204.613 126.603 204.613C108.997 204.613 91.6173 215.011 91.6173 246.192V300.488H75.0771V240.247C75.0771 214.158 68.9329 204.613 51.5397 204.613C34.3598 204.613 16.5535 215.011 16.5535 246.192V300.488H0Z" fill="url(#paint8_radial_182_2358)"/>
<path d="M224.792 230.275H256.179V206.093H194.044V190.19H253.847C267.415 190.19 272.719 194.855 272.719 209.066V300.488H258.298L256.179 288.61C248.329 297.729 235.827 302.608 221.193 302.608C196.376 302.608 179.836 289.45 179.836 266.548C179.836 244.486 196.803 230.275 224.792 230.275ZM223.739 286.064C242.398 286.064 256.179 276.093 256.179 261.242V243.006H227.124C207.398 243.006 197.429 250.858 197.429 265.908C197.442 278.639 208.251 286.064 223.739 286.064Z" fill="url(#paint9_radial_182_2358)"/>
<path d="M368.788 286.491C361.151 298.155 348.849 302.608 334.428 302.608C307.066 302.608 287.98 286.917 287.98 246.192C287.98 205.68 307.066 188.07 334.428 188.07C348.849 188.07 361.151 193.162 368.788 205.04V149.891H385.328V300.488H368.788V286.491ZM336.987 286.064C355.647 286.064 368.801 277.159 368.801 246.192C368.801 215.011 355.66 204.613 336.987 204.613C318.755 204.613 305.6 215.011 305.6 246.192C305.6 276.946 318.741 286.064 336.987 286.064Z" fill="url(#paint10_radial_182_2358)"/>
<path d="M449.796 302.608C420.101 302.608 400.602 285.211 400.602 245.979C400.602 206.32 420.115 188.07 449.796 188.07C478.852 188.07 497.511 206.946 497.511 236.861V244.072H418.622L418.409 248.952V250.645C418.409 276.733 431.35 286.064 450.01 286.064C467.189 286.064 477.159 277.586 479.918 259.549H497.524C495.178 286.491 476.732 302.608 449.796 302.608ZM480.131 230.915C477.585 213.945 466.989 204.613 450.023 204.613C434.962 204.613 423.513 211.399 420.115 230.915H480.131Z" fill="url(#paint11_radial_182_2358)"/>
<path d="M613.305 188.07C642.574 188.07 662.712 205.68 662.712 246.192C662.712 286.278 642.56 302.608 613.305 302.608C584.463 302.608 563.898 286.917 563.898 246.192C563.898 205.667 584.463 188.07 613.305 188.07ZM613.945 286.064C632.178 286.064 645.119 276.733 645.119 246.192C645.119 215.011 632.178 204.613 613.945 204.613C594.859 204.613 581.504 214.798 581.504 246.192C581.504 277.159 594.859 286.064 613.945 286.064Z" fill="url(#paint12_radial_182_2358)"/>
<path d="M676.081 190.19H687.529V168.767C687.529 154.557 692.834 149.891 706.189 149.891H745V165.794H704.07V190.19H737.15V206.093H704.07V300.488H687.529V206.093H676.081V190.19Z" fill="url(#paint13_radial_182_2358)"/>
<path d="M0 427.383C0 409.814 14.3543 397.189 31.9208 397.189C41.3171 397.189 46.2751 390.884 46.2751 380.726C46.2751 374.794 49.3672 362.036 66.0673 362.036H184.421C187.886 362.036 190.605 364.756 190.605 368.222V390.004C190.605 393.47 187.886 396.19 184.421 396.19H61.2426C49.114 396.19 41.6903 404.108 41.6903 412.64C41.6903 417.839 43.5429 426.877 50.4735 433.796L170.679 559.464C184.407 573.942 190.592 582.487 190.592 595.591C190.592 613.161 176.251 625.785 158.684 625.785C149.288 625.785 144.33 632.09 144.33 642.248C144.33 648.194 141.238 660.938 124.538 660.938H6.53076C3.06546 660.938 0.34653 658.219 0.34653 654.753V632.97C0.34653 629.504 3.06546 626.785 6.53076 626.785H129.349C141.478 626.785 148.901 618.866 148.901 610.334C148.901 605.135 147.049 596.111 140.118 589.179L19.9255 463.51C6.18423 449.033 0 440.501 0 427.383Z" fill="url(#paint14_radial_182_2358)"/>
<path d="M275.038 660.845C254.633 660.845 238.106 644.315 238.106 623.905V368.168C238.106 364.769 240.865 361.996 244.264 361.996H270.547C273.945 361.996 276.704 364.756 276.704 368.168V614.36C276.704 621.172 282.209 626.678 289.02 626.678H397.177C409.292 626.678 419.701 616.72 419.821 606.415V368.168C419.821 364.769 422.58 361.996 425.979 361.996H452.262C455.661 361.996 458.42 364.756 458.42 368.168V595.471C458.42 613.041 444.092 625.625 426.525 625.691C417.102 625.718 412.144 631.93 412.144 642.182C412.144 648.047 409.012 660.845 392.259 660.845H275.038Z" fill="url(#paint15_radial_182_2358)"/>
<path d="M689.968 362.023C710.36 362.023 726.901 378.553 726.901 398.962V654.699C726.901 658.112 724.142 660.871 720.743 660.871H694.46C691.061 660.871 688.289 658.112 688.289 654.699V408.494C688.289 401.682 682.785 396.176 675.974 396.176H567.083C554.968 396.176 544.559 406.134 544.439 416.439V654.699C544.439 658.099 541.68 660.871 538.281 660.871H511.998C508.6 660.871 505.841 658.112 505.841 654.699V427.397C505.841 409.827 520.169 397.243 537.735 397.176C547.158 397.149 552.116 390.937 552.116 380.673C552.116 374.807 555.261 362.009 572.001 362.009H689.968V362.023Z" fill="url(#paint16_radial_182_2358)"/>
<path d="M98.7211 78.1048L121.339 1.79965H135.88L108.237 95.1548H89.0316L68.0266 23.5154L46.8482 95.1548H27.6425L0 1.79965H14.7142L37.332 77.9182L59.7631 1.79965H76.2766L98.7211 78.1048Z" fill="url(#paint17_radial_182_2358)"/>
<path d="M179.863 96.9545C154.726 96.9545 138.212 82.2373 138.212 49.0171C138.212 15.437 154.739 0 179.863 0C204.453 0 220.247 15.9836 220.247 41.2986V47.4041H153.473L153.3 51.5366V52.9764C153.3 75.0654 164.255 82.9572 180.049 82.9572C194.59 82.9572 203.027 75.7719 205.359 60.5215H220.26C218.274 83.3038 202.654 96.9545 179.863 96.9545ZM205.532 36.2596C203.373 21.9024 194.403 13.9973 180.049 13.9973C167.307 13.9973 157.618 19.7428 154.739 36.2596H205.532Z" fill="url(#paint18_radial_182_2358)"/>
<path d="M314.49 35.7264H341.052V15.2637H288.46V1.79965H339.08C350.569 1.79965 355.06 5.74555 355.06 17.7832V95.1681H342.852L341.052 85.1168C334.415 92.8353 323.819 96.9678 311.437 96.9678C290.432 96.9678 276.438 85.8366 276.438 66.4404C276.438 47.7507 290.792 35.7264 314.49 35.7264ZM313.597 82.9438C329.39 82.9438 341.066 74.5055 341.066 61.9346V46.4976H316.475C299.775 46.4976 291.339 53.1363 291.339 65.8938C291.339 76.6651 300.495 82.9438 313.597 82.9438Z" fill="url(#paint19_radial_182_2358)"/>
<path d="M369.774 17.7699C369.774 5.74555 374.439 1.78632 385.755 1.78632H431.523V15.437H383.782V95.1548H369.774V17.7699Z" fill="url(#paint20_radial_182_2358)"/>
<path d="M477.479 96.9545C452.342 96.9545 435.828 82.2373 435.828 49.0171C435.842 15.437 452.355 0 477.479 0C502.069 0 517.863 15.9836 517.863 41.2986V47.4041H451.089L450.916 51.5366V52.9764C450.916 75.0654 461.872 82.9572 477.665 82.9572C492.206 82.9572 500.643 75.7719 502.975 60.5215H517.876C515.89 83.3038 500.283 96.9545 477.479 96.9545ZM503.149 36.2596C500.989 21.9024 492.02 13.9973 477.665 13.9973C464.924 13.9973 455.234 19.7428 452.355 36.2596H503.149Z" fill="url(#paint21_radial_182_2358)"/>
<path d="M0 300.488V190.19H16.5402V206.306C25.6566 193.789 39.2379 188.07 53.8588 188.07C71.8784 188.07 83.3405 195.495 88.4318 210.759C96.2821 195.695 109.85 188.07 128.723 188.07C153.953 188.07 166.468 202.281 166.468 230.488V300.488H150.141V240.247C150.141 214.158 143.57 204.613 126.603 204.613C108.997 204.613 91.6173 215.011 91.6173 246.192V300.488H75.0771V240.247C75.0771 214.158 68.9329 204.613 51.5397 204.613C34.3598 204.613 16.5535 215.011 16.5535 246.192V300.488H0Z" fill="url(#paint22_radial_182_2358)"/>
<path d="M224.792 230.275H256.179V206.093H194.044V190.19H253.847C267.415 190.19 272.719 194.855 272.719 209.066V300.488H258.298L256.179 288.61C248.329 297.729 235.827 302.608 221.193 302.608C196.376 302.608 179.836 289.45 179.836 266.548C179.836 244.486 196.803 230.275 224.792 230.275ZM223.739 286.064C242.398 286.064 256.179 276.093 256.179 261.242V243.006H227.124C207.398 243.006 197.429 250.858 197.429 265.908C197.442 278.639 208.251 286.064 223.739 286.064Z" fill="url(#paint23_radial_182_2358)"/>
<path d="M368.788 286.491C361.151 298.155 348.849 302.608 334.428 302.608C307.066 302.608 287.98 286.917 287.98 246.192C287.98 205.68 307.066 188.07 334.428 188.07C348.849 188.07 361.151 193.162 368.788 205.04V149.891H385.328V300.488H368.788V286.491ZM336.987 286.064C355.647 286.064 368.801 277.159 368.801 246.192C368.801 215.011 355.66 204.613 336.987 204.613C318.755 204.613 305.6 215.011 305.6 246.192C305.6 276.946 318.741 286.064 336.987 286.064Z" fill="url(#paint24_radial_182_2358)"/>
<path d="M449.796 302.608C420.101 302.608 400.602 285.211 400.602 245.979C400.602 206.32 420.115 188.07 449.796 188.07C478.852 188.07 497.511 206.946 497.511 236.861V244.072H418.622L418.409 248.952V250.645C418.409 276.733 431.35 286.064 450.01 286.064C467.189 286.064 477.159 277.586 479.918 259.549H497.524C495.178 286.491 476.732 302.608 449.796 302.608ZM480.131 230.915C477.585 213.945 466.989 204.613 450.023 204.613C434.962 204.613 423.513 211.399 420.115 230.915H480.131Z" fill="url(#paint25_radial_182_2358)"/>
<path d="M613.305 188.07C642.574 188.07 662.712 205.68 662.712 246.192C662.712 286.278 642.56 302.608 613.305 302.608C584.463 302.608 563.898 286.917 563.898 246.192C563.898 205.667 584.463 188.07 613.305 188.07ZM613.945 286.064C632.178 286.064 645.119 276.733 645.119 246.192C645.119 215.011 632.178 204.613 613.945 204.613C594.859 204.613 581.504 214.798 581.504 246.192C581.504 277.159 594.859 286.064 613.945 286.064Z" fill="url(#paint26_radial_182_2358)"/>
<path d="M676.081 190.19H687.529V168.767C687.529 154.557 692.834 149.891 706.189 149.891H745V165.794H704.07V190.19H737.15V206.093H704.07V300.488H687.529V206.093H676.081V190.19Z" fill="url(#paint27_radial_182_2358)"/>
<defs>
<radialGradient id="paint0_radial_182_2358" cx="0" cy="0" r="1" gradientUnits="userSpaceOnUse" gradientTransform="translate(382.139 602.176) rotate(-90) scale(1025.3 347.715)">
<stop stop-color="#FFE0A1"/>
<stop offset="1" stop-color="#FFBA4C"/>
</radialGradient>
<radialGradient id="paint1_radial_182_2358" cx="0" cy="0" r="1" gradientUnits="userSpaceOnUse" gradientTransform="translate(382.139 602.176) rotate(-90) scale(1025.3 347.715)">
<stop stop-color="#FFE0A1"/>
<stop offset="1" stop-color="#FFBA4C"/>
</radialGradient>
<radialGradient id="paint2_radial_182_2358" cx="0" cy="0" r="1" gradientUnits="userSpaceOnUse" gradientTransform="translate(382.139 602.176) rotate(-90) scale(1025.3 347.715)">
<stop stop-color="#FFE0A1"/>
<stop offset="1" stop-color="#FFBA4C"/>
</radialGradient>
<radialGradient id="paint3_radial_182_2358" cx="0" cy="0" r="1" gradientUnits="userSpaceOnUse" gradientTransform="translate(382.139 602.176) rotate(-90) scale(1025.3 347.715)">
<stop stop-color="#FFE0A1"/>
<stop offset="1" stop-color="#FFBA4C"/>
</radialGradient>
<radialGradient id="paint4_radial_182_2358" cx="0" cy="0" r="1" gradientUnits="userSpaceOnUse" gradientTransform="translate(382.139 602.176) rotate(-90) scale(1025.3 347.715)">
<stop stop-color="#FFE0A1"/>
<stop offset="1" stop-color="#FFBA4C"/>
</radialGradient>
<radialGradient id="paint5_radial_182_2358" cx="0" cy="0" r="1" gradientUnits="userSpaceOnUse" gradientTransform="translate(382.139 602.176) rotate(-90) scale(1025.3 347.715)">
<stop stop-color="#FFE0A1"/>
<stop offset="1" stop-color="#FFBA4C"/>
</radialGradient>
<radialGradient id="paint6_radial_182_2358" cx="0" cy="0" r="1" gradientUnits="userSpaceOnUse" gradientTransform="translate(382.139 602.176) rotate(-90) scale(1025.3 347.715)">
<stop stop-color="#FFE0A1"/>
<stop offset="1" stop-color="#FFBA4C"/>
</radialGradient>
<radialGradient id="paint7_radial_182_2358" cx="0" cy="0" r="1" gradientUnits="userSpaceOnUse" gradientTransform="translate(382.139 602.176) rotate(-90) scale(1025.3 347.715)">
<stop stop-color="#FFE0A1"/>
<stop offset="1" stop-color="#FFBA4C"/>
</radialGradient>
<radialGradient id="paint8_radial_182_2358" cx="0" cy="0" r="1" gradientUnits="userSpaceOnUse" gradientTransform="translate(382.139 602.176) rotate(-90) scale(1025.3 347.715)">
<stop stop-color="#FFE0A1"/>
<stop offset="1" stop-color="#FFBA4C"/>
</radialGradient>
<radialGradient id="paint9_radial_182_2358" cx="0" cy="0" r="1" gradientUnits="userSpaceOnUse" gradientTransform="translate(382.139 602.176) rotate(-90) scale(1025.3 347.715)">
<stop stop-color="#FFE0A1"/>
<stop offset="1" stop-color="#FFBA4C"/>
</radialGradient>
<radialGradient id="paint10_radial_182_2358" cx="0" cy="0" r="1" gradientUnits="userSpaceOnUse" gradientTransform="translate(382.139 602.176) rotate(-90) scale(1025.3 347.715)">
<stop stop-color="#FFE0A1"/>
<stop offset="1" stop-color="#FFBA4C"/>
</radialGradient>
<radialGradient id="paint11_radial_182_2358" cx="0" cy="0" r="1" gradientUnits="userSpaceOnUse" gradientTransform="translate(382.139 602.176) rotate(-90) scale(1025.3 347.715)">
<stop stop-color="#FFE0A1"/>
<stop offset="1" stop-color="#FFBA4C"/>
</radialGradient>
<radialGradient id="paint12_radial_182_2358" cx="0" cy="0" r="1" gradientUnits="userSpaceOnUse" gradientTransform="translate(382.139 602.176) rotate(-90) scale(1025.3 347.715)">
<stop stop-color="#FFE0A1"/>
<stop offset="1" stop-color="#FFBA4C"/>
</radialGradient>
<radialGradient id="paint13_radial_182_2358" cx="0" cy="0" r="1" gradientUnits="userSpaceOnUse" gradientTransform="translate(382.139 602.176) rotate(-90) scale(1025.3 347.715)">
<stop stop-color="#FFE0A1"/>
<stop offset="1" stop-color="#FFBA4C"/>
</radialGradient>
<radialGradient id="paint14_radial_182_2358" cx="0" cy="0" r="1" gradientUnits="userSpaceOnUse" gradientTransform="translate(382.139 602.176) rotate(-90) scale(1025.3 347.715)">
<stop stop-color="#FFE0A1"/>
<stop offset="1" stop-color="#FFBA4C"/>
</radialGradient>
<radialGradient id="paint15_radial_182_2358" cx="0" cy="0" r="1" gradientUnits="userSpaceOnUse" gradientTransform="translate(382.139 602.176) rotate(-90) scale(1025.3 347.715)">
<stop stop-color="#FFE0A1"/>
<stop offset="1" stop-color="#FFBA4C"/>
</radialGradient>
<radialGradient id="paint16_radial_182_2358" cx="0" cy="0" r="1" gradientUnits="userSpaceOnUse" gradientTransform="translate(382.139 602.176) rotate(-90) scale(1025.3 347.715)">
<stop stop-color="#FFE0A1"/>
<stop offset="1" stop-color="#FFBA4C"/>
</radialGradient>
<radialGradient id="paint17_radial_182_2358" cx="0" cy="0" r="1" gradientUnits="userSpaceOnUse" gradientTransform="translate(382.139 602.176) rotate(-90) scale(1025.3 347.715)">
<stop stop-color="#FFE0A1"/>
<stop offset="1" stop-color="#FFBA4C"/>
</radialGradient>
<radialGradient id="paint18_radial_182_2358" cx="0" cy="0" r="1" gradientUnits="userSpaceOnUse" gradientTransform="translate(382.139 602.176) rotate(-90) scale(1025.3 347.715)">
<stop stop-color="#FFE0A1"/>
<stop offset="1" stop-color="#FFBA4C"/>
</radialGradient>
<radialGradient id="paint19_radial_182_2358" cx="0" cy="0" r="1" gradientUnits="userSpaceOnUse" gradientTransform="translate(382.139 602.176) rotate(-90) scale(1025.3 347.715)">
<stop stop-color="#FFE0A1"/>
<stop offset="1" stop-color="#FFBA4C"/>
</radialGradient>
<radialGradient id="paint20_radial_182_2358" cx="0" cy="0" r="1" gradientUnits="userSpaceOnUse" gradientTransform="translate(382.139 602.176) rotate(-90) scale(1025.3 347.715)">
<stop stop-color="#FFE0A1"/>
<stop offset="1" stop-color="#FFBA4C"/>
</radialGradient>
<radialGradient id="paint21_radial_182_2358" cx="0" cy="0" r="1" gradientUnits="userSpaceOnUse" gradientTransform="translate(382.139 602.176) rotate(-90) scale(1025.3 347.715)">
<stop stop-color="#FFE0A1"/>
<stop offset="1" stop-color="#FFBA4C"/>
</radialGradient>
<radialGradient id="paint22_radial_182_2358" cx="0" cy="0" r="1" gradientUnits="userSpaceOnUse" gradientTransform="translate(382.139 602.176) rotate(-90) scale(1025.3 347.715)">
<stop stop-color="#FFE0A1"/>
<stop offset="1" stop-color="#FFBA4C"/>
</radialGradient>
<radialGradient id="paint23_radial_182_2358" cx="0" cy="0" r="1" gradientUnits="userSpaceOnUse" gradientTransform="translate(382.139 602.176) rotate(-90) scale(1025.3 347.715)">
<stop stop-color="#FFE0A1"/>
<stop offset="1" stop-color="#FFBA4C"/>
</radialGradient>
<radialGradient id="paint24_radial_182_2358" cx="0" cy="0" r="1" gradientUnits="userSpaceOnUse" gradientTransform="translate(382.139 602.176) rotate(-90) scale(1025.3 347.715)">
<stop stop-color="#FFE0A1"/>
<stop offset="1" stop-color="#FFBA4C"/>
</radialGradient>
<radialGradient id="paint25_radial_182_2358" cx="0" cy="0" r="1" gradientUnits="userSpaceOnUse" gradientTransform="translate(382.139 602.176) rotate(-90) scale(1025.3 347.715)">
<stop stop-color="#FFE0A1"/>
<stop offset="1" stop-color="#FFBA4C"/>
</radialGradient>
<radialGradient id="paint26_radial_182_2358" cx="0" cy="0" r="1" gradientUnits="userSpaceOnUse" gradientTransform="translate(382.139 602.176) rotate(-90) scale(1025.3 347.715)">
<stop stop-color="#FFE0A1"/>
<stop offset="1" stop-color="#FFBA4C"/>
</radialGradient>
<radialGradient id="paint27_radial_182_2358" cx="0" cy="0" r="1" gradientUnits="userSpaceOnUse" gradientTransform="translate(382.139 602.176) rotate(-90) scale(1025.3 347.715)">
<stop stop-color="#FFE0A1"/>
<stop offset="1" stop-color="#FFBA4C"/>
</radialGradient>
</defs>
</svg>
